<svg width="664" height="271" viewBox="0 0 664 271" fill="none" xmlns="http://www.w3.org/2000/svg">
<path fill-rule="evenodd" clip-rule="evenodd" d="M614.167 11.7861C613.427 12.1325 612.548 11.8121 612.198 11.0724C612.105 10.8753 612.012 10.6783 611.918 10.4814C611.568 9.74248 611.877 8.85728 612.613 8.50232L629.934 0.147012C630.67 -0.207951 631.554 0.101759 631.905 0.840531C632.036 1.11566 632.166 1.391 632.296 1.66654C632.645 2.40628 632.325 3.28813 631.585 3.63444L614.167 11.7861ZM30.884 6.9651C30.1402 6.62705 29.8105 5.74885 30.1513 5.00527C30.2646 4.75802 30.3782 4.51094 30.4921 4.26402C30.8347 3.52128 31.7152 3.20149 32.4551 3.54801L49.8707 11.7048C50.6105 12.0513 50.9296 12.9329 50.5872 13.6758C50.5087 13.846 50.4304 14.0163 50.3523 14.1867C50.0113 14.9302 49.1351 15.2603 48.3913 14.9223L30.884 6.9651ZM619.719 24.4161C618.965 24.7291 618.1 24.3699 617.784 23.6154C617.7 23.4158 617.616 23.2164 617.532 23.017C617.215 22.2632 617.563 21.3927 618.314 21.0709L635.989 13.4953C636.74 13.1735 637.609 13.5223 637.927 14.276C638.045 14.5551 638.162 14.8345 638.279 15.1141C638.595 15.8686 638.236 16.7353 637.482 17.0483L619.719 24.4161ZM25.2751 20.0993C24.5174 19.7939 24.15 18.9308 24.4583 18.1731C24.5602 17.9227 24.6624 17.6724 24.7649 17.4222C25.075 16.6653 25.9409 16.3076 26.695 16.6216L44.4472 24.0144C45.2014 24.3284 45.5583 25.1954 45.2484 25.9524C45.178 26.1244 45.1077 26.2965 45.0376 26.4686C44.7291 27.2262 43.868 27.5941 43.1103 27.2886L25.2751 20.0993ZM624.705 37.2838C623.938 37.5628 623.09 37.1654 622.808 36.3976C622.732 36.1931 622.657 35.9887 622.582 35.7844C622.298 35.0172 622.684 34.163 623.448 33.875L641.443 27.095C642.207 26.807 643.06 27.1941 643.344 27.9612C643.45 28.247 643.556 28.5329 643.661 28.819C643.943 29.5869 643.546 30.4367 642.778 30.7157L624.705 37.2838ZM20.2389 33.4687C19.4687 33.1966 19.0642 32.3503 19.3394 31.5799C19.4309 31.3237 19.5227 31.0677 19.6148 30.8118C19.8918 30.0421 20.7414 29.6471 21.5084 29.9281L39.5641 36.5422C40.3312 36.8232 40.7253 37.6738 40.4485 38.4436C40.3851 38.6198 40.3219 38.7961 40.2588 38.9725C39.9834 39.7428 39.1391 40.1478 38.3689 39.8756L20.2389 33.4687ZM629.114 50.3583C628.334 50.6028 627.505 50.1679 627.257 49.3883C627.192 49.1819 627.126 48.9755 627.06 48.7693C626.81 47.9902 627.234 47.1541 628.011 46.9005L646.289 40.9306C647.065 40.677 647.9 41.1019 648.15 41.8809C648.243 42.1698 648.335 42.4588 648.427 42.748C648.674 43.5277 648.24 44.359 647.46 44.6035L629.114 50.3583ZM15.7878 47.0421C15.0065 46.8037 14.5657 45.9758 14.8072 45.1942C14.8871 44.9356 14.9674 44.6771 15.0479 44.4187C15.2913 43.6377 16.1229 43.2061 16.9014 43.4534L35.2269 49.2756C36.0054 49.5229 36.436 50.3555 36.1928 51.1366C36.1376 51.3142 36.0824 51.4919 36.0274 51.6697C35.7857 52.4512 34.9597 52.8925 34.1785 52.6541L15.7878 47.0421ZM632.936 63.618C632.147 63.8275 631.338 63.356 631.125 62.566C631.068 62.356 631.011 62.1461 630.954 61.9362C630.74 61.1467 631.2 60.3303 631.988 60.1116L650.513 54.9635C651.3 54.7448 652.115 55.2066 652.33 55.996C652.41 56.2896 652.489 56.5835 652.568 56.8774C652.781 57.6674 652.31 58.4785 651.521 58.688L632.936 63.618ZM11.929 60.7978C11.1381 60.5936 10.6619 59.7857 10.8692 58.9943C10.9381 58.7315 11.0073 58.4688 11.0768 58.2062C11.2861 57.4153 12.0982 56.948 12.8867 57.1612L31.4473 62.1806C32.2358 62.3939 32.7021 63.207 32.493 63.998C32.4452 64.1787 32.3976 64.3595 32.3502 64.5404C32.1425 65.3317 31.3365 65.8086 30.5456 65.6044L11.929 60.7978ZM636.166 77.0363C635.368 77.2103 634.58 76.7032 634.403 75.9046C634.356 75.6923 634.308 75.48 634.261 75.2678C634.081 74.4695 634.578 73.6745 635.374 73.4912L654.11 69.1747C654.906 68.9913 655.7 69.489 655.879 70.2872C655.946 70.584 656.012 70.8809 656.078 71.178C656.255 71.9767 655.749 72.766 654.951 72.94L636.166 77.0363ZM8.66985 74.7086C7.87085 74.539 7.36007 73.7525 7.53297 72.9529C7.59036 72.6875 7.64807 72.4222 7.70609 72.157C7.88096 71.3578 8.67206 70.8555 9.46907 71.0342L28.2296 75.242C29.0266 75.4207 29.5277 76.2128 29.3531 77.0121C29.3132 77.1947 29.2734 77.3774 29.2338 77.5602C29.0607 78.3597 28.2761 78.8712 27.4771 78.7016L8.66985 74.7086ZM638.796 90.5828C637.991 90.7211 637.227 90.1795 637.085 89.3737C637.047 89.1601 637.009 88.9465 636.971 88.733C636.828 87.9275 637.359 87.1554 638.162 87.0077L657.071 83.5299C657.875 83.3821 658.646 83.9147 658.79 84.7201C658.843 85.0187 658.896 85.3174 658.948 85.6163C659.09 86.4221 658.549 87.1881 657.744 87.3264L638.796 90.5828ZM6.01632 88.7436C5.21074 88.6088 4.66647 87.8452 4.80465 87.0388C4.85038 86.772 4.89643 86.5052 4.94279 86.2386C5.08295 85.4325 5.85159 84.8964 6.65558 85.0404L25.5804 88.4301C26.3844 88.5741 26.9193 89.3437 26.7794 90.1498C26.7475 90.3334 26.7158 90.5172 26.6842 90.7009C26.5458 91.5073 25.784 92.0523 24.9784 91.9174L6.01632 88.7436ZM640.825 104.243C640.015 104.345 639.275 103.77 639.169 102.959C639.141 102.741 639.112 102.523 639.083 102.306C638.975 101.495 639.54 100.747 640.349 100.635L659.393 97.9999C660.202 97.8879 660.949 98.4542 661.057 99.2652C661.098 99.5684 661.138 99.8718 661.177 100.175C661.283 100.987 660.709 101.728 659.899 101.83L640.825 104.243ZM3.96979 102.887C3.15915 102.788 2.58249 102.048 2.6858 101.237C2.72029 100.966 2.75511 100.695 2.79026 100.424C2.89556 99.6125 3.64037 99.0437 4.44982 99.1528L23.5031 101.721C24.3125 101.83 24.8801 102.576 24.775 103.387C24.7508 103.574 24.7267 103.762 24.7028 103.949C24.5992 104.761 23.8616 105.338 23.0509 105.239L3.96979 102.887ZM642.249 117.968C641.435 118.035 640.721 117.428 640.651 116.613C640.632 116.398 640.614 116.182 640.595 115.967C640.523 115.152 641.12 114.43 641.933 114.354L661.075 112.564C661.888 112.488 662.609 113.087 662.681 113.902C662.708 114.202 662.734 114.502 662.76 114.803C662.83 115.618 662.224 116.333 661.41 116.4L642.249 117.968ZM2.53427 117.091C1.7201 117.027 1.11231 116.313 1.18074 115.497C1.20323 115.229 1.22603 114.962 1.24915 114.694C1.31954 113.879 2.03924 113.278 2.85262 113.352L21.9985 115.097C22.8119 115.171 23.4109 115.892 23.3408 116.707C23.3249 116.892 23.3092 117.077 23.2936 117.261C23.2249 118.077 22.5127 118.685 21.6985 118.62L2.53427 117.091ZM643.07 131.755C642.254 131.786 641.568 131.148 641.533 130.331C641.524 130.112 641.515 129.893 641.505 129.674C641.468 128.857 642.097 128.162 642.913 128.121L662.114 127.173C662.93 127.133 663.624 127.763 663.661 128.58C663.674 128.884 663.688 129.188 663.7 129.492C663.735 130.31 663.098 130.998 662.282 131.028L643.07 131.755ZM1.70633 131.351C0.890145 131.321 0.252506 130.633 0.286132 129.816C0.297295 129.545 0.308784 129.273 0.320596 129.002C0.356194 128.185 1.04964 127.554 1.86544 127.593L21.0682 128.517C21.884 128.556 22.5133 129.251 22.4779 130.068C22.4698 130.256 22.4618 130.445 22.454 130.633C22.4201 131.451 21.7345 132.089 20.9183 132.059L1.70633 131.351ZM641.817 143.754C641.817 143.643 641.817 143.532 641.817 143.421C641.816 142.603 642.474 141.936 643.291 141.931L662.516 141.821C663.332 141.816 663.999 142.476 664 143.294C664 143.447 664 143.6 664 143.754C664 143.891 664 144.028 664 144.165C663.999 144.983 663.333 145.642 662.516 145.638L643.291 145.531C642.475 145.526 641.816 144.859 641.817 144.041C641.817 143.945 641.817 143.85 641.817 143.754ZM0 143.754C0 143.617 8.26403e-05 143.48 0.000247878 143.343C0.00123507 142.525 0.667349 141.865 1.48408 141.87L20.7087 141.977C21.5255 141.982 22.1835 142.649 22.1828 143.467C22.1827 143.562 22.1826 143.658 22.1826 143.754C22.1826 143.85 22.1827 143.945 22.1828 144.041C22.1835 144.859 21.5255 145.526 20.7087 145.531L1.48408 145.638C0.667349 145.642 0.00123491 144.983 0.000247814 144.165C8.26191e-05 144.028 0 143.891 0 143.754ZM1.86543 159.915C1.04963 159.954 0.356191 159.323 0.320593 158.506C0.308781 158.234 0.297292 157.963 0.286129 157.692C0.252503 156.874 0.890141 156.187 1.70633 156.157L20.9183 155.448C21.7345 155.418 22.4201 156.057 22.454 156.874C22.4618 157.063 22.4698 157.251 22.4779 157.44C22.5133 158.257 21.884 158.951 21.0682 158.991L1.86543 159.915ZM642.932 158.991C642.116 158.951 641.487 158.257 641.522 157.44C641.53 157.251 641.538 157.063 641.546 156.874C641.58 156.057 642.266 155.418 643.082 155.448L662.294 156.157C663.11 156.187 663.747 156.874 663.714 157.692C663.703 157.963 663.691 158.234 663.679 158.506C663.644 159.323 662.95 159.954 662.135 159.915L642.932 158.991ZM2.85262 174.155C2.03924 174.229 1.31954 173.629 1.24915 172.814C1.22602 172.546 1.20322 172.278 1.18073 172.01C1.1123 171.195 1.7201 170.481 2.53426 170.416L21.6985 168.887C22.5127 168.822 23.2249 169.431 23.2936 170.246C23.3092 170.431 23.3249 170.616 23.3408 170.801C23.4109 171.616 22.8119 172.336 21.9985 172.411L2.85262 174.155ZM642.001 172.411C641.188 172.336 640.589 171.616 640.659 170.801C640.675 170.616 640.691 170.431 640.706 170.246C640.775 169.431 641.487 168.822 642.301 168.887L661.466 170.416C662.28 170.481 662.888 171.195 662.819 172.01C662.797 172.278 662.774 172.546 662.751 172.814C662.68 173.629 661.961 174.229 661.147 174.155L642.001 172.411ZM4.44982 188.355C3.64037 188.464 2.89555 187.895 2.79025 187.084C2.75511 186.813 2.72029 186.542 2.68579 186.271C2.58248 185.459 3.15915 184.72 3.96978 184.62L23.0509 182.269C23.8616 182.169 24.5992 182.747 24.7027 183.558C24.7267 183.746 24.7508 183.933 24.775 184.121C24.8801 184.932 24.3125 185.678 23.5031 185.787L4.44982 188.355ZM640.497 185.787C639.687 185.678 639.12 184.932 639.225 184.121C639.249 183.933 639.273 183.746 639.297 183.558C639.401 182.747 640.138 182.169 640.949 182.269L660.03 184.62C660.841 184.72 661.417 185.459 661.314 186.271C661.28 186.542 661.245 186.813 661.21 187.084C661.104 187.895 660.36 188.464 659.55 188.355L640.497 185.787ZM6.65558 202.467C5.85158 202.611 5.08295 202.075 4.94279 201.269C4.89643 201.002 4.85038 200.736 4.80465 200.469C4.66646 199.662 5.21074 198.899 6.01631 198.764L24.9784 195.59C25.784 195.455 26.5458 196 26.6842 196.807C26.7158 196.991 26.7475 197.174 26.7794 197.358C26.9193 198.164 26.3844 198.934 25.5804 199.078L6.65558 202.467ZM638.42 199.078C637.616 198.934 637.081 198.164 637.221 197.358C637.252 197.174 637.284 196.991 637.316 196.807C637.454 196 638.216 195.455 639.022 195.59L657.984 198.764C658.789 198.899 659.334 199.662 659.195 200.469C659.15 200.736 659.104 201.002 659.057 201.269C658.917 202.075 658.148 202.611 657.344 202.467L638.42 199.078ZM9.46906 216.473C8.67205 216.652 7.88095 216.15 7.70608 215.351C7.64806 215.085 7.59036 214.82 7.53297 214.555C7.36006 213.755 7.87084 212.969 8.66984 212.799L27.4771 208.806C28.2761 208.636 29.0607 209.148 29.2338 209.948C29.2734 210.13 29.3132 210.313 29.3531 210.496C29.5277 211.295 29.0266 212.087 28.2296 212.266L9.46906 216.473ZM635.77 212.266C634.973 212.087 634.472 211.295 634.647 210.496C634.687 210.313 634.727 210.13 634.766 209.948C634.939 209.148 635.724 208.636 636.523 208.806L655.33 212.799C656.129 212.969 656.64 213.755 656.467 214.555C656.41 214.82 656.352 215.085 656.294 215.351C656.119 216.15 655.328 216.652 654.531 216.473L635.77 212.266ZM12.8867 230.347C12.0982 230.56 11.2861 230.092 11.0768 229.302C11.0073 229.039 10.9381 228.776 10.8692 228.513C10.6619 227.722 11.1381 226.914 11.929 226.71L30.5456 221.903C31.3365 221.699 32.1425 222.176 32.3501 222.967C32.3976 223.148 32.4452 223.329 32.493 223.51C32.7021 224.301 32.2358 225.114 31.4473 225.327L12.8867 230.347ZM632.553 225.327C631.764 225.114 631.298 224.301 631.507 223.51C631.555 223.329 631.602 223.148 631.65 222.967C631.857 222.176 632.663 221.699 633.454 221.903L652.071 226.71C652.862 226.914 653.338 227.722 653.131 228.513C653.062 228.776 652.993 229.039 652.923 229.301C652.714 230.092 651.902 230.56 651.113 230.347L632.553 225.327ZM16.9014 244.054C16.1229 244.302 15.2913 243.87 15.0479 243.089C14.9674 242.831 14.8871 242.572 14.8072 242.314C14.5657 241.532 15.0065 240.704 15.7878 240.466L34.1785 234.854C34.9598 234.615 35.7857 235.057 36.0274 235.838C36.0824 236.016 36.1376 236.193 36.1928 236.371C36.436 237.152 36.0054 237.985 35.2269 238.232L16.9014 244.054ZM628.773 238.232C627.995 237.985 627.564 237.152 627.807 236.371C627.862 236.193 627.918 236.016 627.973 235.838C628.214 235.057 629.04 234.615 629.822 234.854L648.212 240.466C648.993 240.704 649.434 241.532 649.193 242.314C649.113 242.572 649.033 242.831 648.952 243.089C648.709 243.87 647.877 244.302 647.099 244.054L628.773 238.232ZM21.5084 257.58C20.7414 257.861 19.8918 257.466 19.6148 256.696C19.5227 256.44 19.4309 256.184 19.3394 255.928C19.0642 255.157 19.4687 254.311 20.2389 254.039L38.3689 247.632C39.1391 247.36 39.9834 247.765 40.2588 248.535C40.3219 248.712 40.3851 248.888 40.4485 249.064C40.7253 249.834 40.3312 250.685 39.5641 250.965L21.5084 257.58ZM624.436 250.966C623.669 250.685 623.275 249.834 623.552 249.064C623.615 248.888 623.678 248.712 623.741 248.535C624.017 247.765 624.861 247.36 625.631 247.632L643.761 254.039C644.531 254.311 644.936 255.158 644.661 255.928C644.569 256.184 644.477 256.44 644.385 256.696C644.108 257.466 643.259 257.861 642.492 257.58L624.436 250.966ZM26.695 270.886C25.9409 271.2 25.075 270.842 24.7649 270.086C24.6624 269.835 24.5602 269.585 24.4583 269.335C24.15 268.577 24.5174 267.714 25.2751 267.409L43.1104 260.219C43.8681 259.914 44.7291 260.282 45.0376 261.039C45.1078 261.211 45.178 261.383 45.2484 261.555C45.5583 262.312 45.2014 263.179 44.4472 263.493L26.695 270.886ZM619.553 263.493C618.799 263.179 618.442 262.312 618.752 261.555C618.822 261.383 618.892 261.211 618.962 261.039C619.271 260.282 620.132 259.914 620.89 260.219L638.725 267.409C639.483 267.714 639.85 268.577 639.542 269.335C639.44 269.585 639.338 269.835 639.235 270.086C638.925 270.842 638.059 271.2 637.305 270.886L619.553 263.493Z" fill="#7FB710"/>
</svg>
