<svg width="598" height="279" viewBox="0 0 598 279" fill="none" xmlns="http://www.w3.org/2000/svg">
<g filter="url(#filter0_d_693_3389)">
<path d="M95.1132 142.783V153.86H67.7914V142.783H95.1132ZM71.5899 115.775V182.424H58.1807V115.775H71.5899ZM104.815 115.775V182.424H91.5435V115.775H104.815Z" fill="white"/>
<path d="M140.695 127.677L126.371 182.424H112.229L133.053 115.775H141.885L140.695 127.677ZM151.999 182.424L137.583 127.677L136.256 115.775H145.226L166.232 182.424H151.999ZM152.503 157.568V168.691H122.435V157.568H152.503Z" fill="white"/>
<path d="M203.348 160.223H216.666C216.483 165.228 215.476 169.454 213.645 172.903C211.815 176.321 209.206 178.914 205.819 180.684C202.463 182.454 198.405 183.339 193.646 183.339C189.954 183.339 186.674 182.729 183.806 181.508C180.938 180.257 178.497 178.426 176.484 176.015C174.47 173.605 172.945 170.629 171.907 167.089C170.9 163.519 170.397 159.414 170.397 154.776V143.469C170.397 138.831 170.931 134.726 171.999 131.156C173.097 127.585 174.653 124.595 176.667 122.184C178.711 119.742 181.167 117.911 184.035 116.691C186.934 115.44 190.198 114.814 193.829 114.814C198.68 114.814 202.738 115.729 206.002 117.56C209.267 119.391 211.784 122.062 213.554 125.571C215.354 129.05 216.437 133.307 216.803 138.342H203.439C203.348 135.169 202.982 132.682 202.341 130.881C201.731 129.05 200.755 127.768 199.412 127.036C198.07 126.273 196.209 125.892 193.829 125.892C192.059 125.892 190.534 126.212 189.252 126.853C187.971 127.463 186.918 128.455 186.094 129.828C185.271 131.201 184.66 133.002 184.264 135.23C183.898 137.457 183.715 140.173 183.715 143.378V154.776C183.715 157.919 183.882 160.604 184.218 162.832C184.554 165.029 185.088 166.83 185.82 168.234C186.552 169.637 187.544 170.66 188.795 171.301C190.076 171.941 191.693 172.262 193.646 172.262C195.903 172.262 197.719 171.926 199.092 171.255C200.495 170.583 201.533 169.378 202.204 167.639C202.875 165.899 203.256 163.427 203.348 160.223Z" fill="white"/>
<path d="M238.45 115.775V182.424H225.041V115.775H238.45ZM271.538 115.775L249.937 148.871L236.711 165.35L234.148 151.938L242.706 137.656L255.246 115.775H271.538ZM256.07 182.424L241.516 151.8L251.356 143.103L271.859 182.424H256.07Z" fill="white"/>
<path d="M301.057 127.677L286.732 182.424H272.591L293.414 115.775H302.247L301.057 127.677ZM312.361 182.424L297.945 127.677L296.618 115.775H305.587L326.594 182.424H312.361ZM312.864 157.568V168.691H282.796V157.568H312.864Z" fill="white"/>
<path d="M354.007 115.775V182.424H340.689V115.775H354.007ZM370.574 115.775V126.899H324.443V115.775H370.574Z" fill="white"/>
<path d="M415.287 142.783V153.86H387.965V142.783H415.287ZM391.763 115.775V182.424H378.354V115.775H391.763ZM424.989 115.775V182.424H411.717V115.775H424.989Z" fill="white"/>
<path d="M537.859 115.775V182.424H524.907L503.993 140.723V182.424H491.27V115.775H504.038L525.136 157.934V115.775H537.859Z" fill="white"/>
<path fill-rule="evenodd" clip-rule="evenodd" d="M444.749 115.255C444.991 114.997 445.326 114.851 445.677 114.851H469.84C470.18 114.851 470.507 114.988 470.747 115.233L484.788 129.482C485.028 129.726 485.163 130.057 485.163 130.403V163.54C485.163 163.886 485.028 164.217 484.788 164.461L458.992 190.64C458.491 191.148 457.679 191.148 457.178 190.64L431.383 164.461C431.142 164.217 431.007 163.886 431.007 163.54V130.403C431.007 130.068 431.134 129.746 431.361 129.504L444.749 115.255ZM446.227 117.455L433.573 130.924V163.001L458.085 187.878L482.598 163.001V130.942L469.309 117.455H446.227Z" fill="white"/>
<path d="M468.085 121.622H448.331C447.994 121.622 447.67 121.753 447.428 121.987L439.868 129.31C439.029 130.122 439.604 131.543 440.771 131.543H452.785C453.503 131.543 454.084 132.125 454.084 132.843V179.951C454.084 180.296 454.221 180.626 454.464 180.87L457.461 183.87C457.968 184.377 458.79 184.377 459.298 183.87L462.295 180.87C462.538 180.626 462.675 180.296 462.675 179.951V132.843C462.675 132.125 463.256 131.543 463.973 131.543H475.401C476.558 131.543 477.137 130.144 476.32 129.325L469.003 122.002C468.76 121.759 468.429 121.622 468.085 121.622Z" fill="white"/>
<path d="M437.34 138.549H444.735C445.428 138.549 445.99 139.105 445.99 139.791V157.951C445.99 158.281 446.122 158.597 446.358 158.83L449.256 161.697C449.747 162.183 449.747 162.969 449.256 163.454L444.002 168.653C443.512 169.138 442.717 169.138 442.227 168.653L436.453 162.94C436.217 162.707 436.085 162.391 436.085 162.061V139.791C436.085 139.105 436.647 138.549 437.34 138.549Z" fill="white"/>
<path d="M437.34 138.549H444.735C445.428 138.549 445.99 139.105 445.99 139.791V157.951C445.99 158.281 446.122 158.597 446.358 158.83L449.256 161.697C449.747 162.183 449.747 162.969 449.256 163.454L444.002 168.653C443.512 169.138 442.717 169.138 442.227 168.653L436.453 162.94C436.217 162.707 436.085 162.391 436.085 162.061V139.791C436.085 139.105 436.647 138.549 437.34 138.549Z" fill="white"/>
<path d="M477.139 138.549H469.745C469.051 138.549 468.489 139.105 468.489 139.791V157.951C468.489 158.281 468.357 158.597 468.122 158.83L465.223 161.697C464.733 162.183 464.733 162.969 465.223 163.454L470.477 168.653C470.968 169.138 471.762 169.138 472.253 168.653L478.027 162.94C478.262 162.707 478.395 162.391 478.395 162.061V139.791C478.395 139.105 477.833 138.549 477.139 138.549Z" fill="white"/>
<path d="M477.139 138.549H469.745C469.051 138.549 468.489 139.105 468.489 139.791V157.951C468.489 158.281 468.357 158.597 468.122 158.83L465.223 161.697C464.733 162.183 464.733 162.969 465.223 163.454L470.477 168.653C470.968 169.138 471.762 169.138 472.253 168.653L478.027 162.94C478.262 162.707 478.395 162.391 478.395 162.061V139.791C478.395 139.105 477.833 138.549 477.139 138.549Z" fill="white"/>
<path d="M249.357 48.7331H244.087V44.4153H249.357C250.088 44.4153 250.683 44.2495 251.143 43.9178C251.615 43.5861 251.957 43.1301 252.169 42.5497C252.381 41.9574 252.487 41.294 252.487 40.5596C252.487 39.8133 252.375 39.1203 252.151 38.4807C251.939 37.8292 251.603 37.302 251.143 36.8993C250.695 36.4965 250.1 36.2951 249.357 36.2951H245.749V57.8483H240.585V31.9774H249.357C251.09 31.9774 252.581 32.3446 253.831 33.079C255.081 33.8135 256.036 34.8263 256.696 36.1175C257.368 37.3968 257.704 38.8656 257.704 40.524C257.704 42.1943 257.368 43.6454 256.696 44.8773C256.036 46.0974 255.081 47.0451 253.831 47.7203C252.581 48.3955 251.09 48.7331 249.357 48.7331Z" fill="white"/>
<path d="M261.188 31.9774H269.447C271.169 31.9774 272.636 32.2735 273.851 32.8658C275.065 33.4581 275.997 34.3347 276.645 35.4956C277.294 36.6564 277.618 38.0898 277.618 39.7955C277.618 41.1933 277.429 42.3897 277.052 43.3848C276.675 44.368 276.138 45.1912 275.442 45.8546C274.747 46.5061 273.916 47.0273 272.949 47.4182L271.375 48.36H264.672L264.655 44.0422H269.306C270.013 44.0422 270.597 43.8882 271.057 43.5802C271.528 43.2604 271.876 42.8162 272.1 42.2476C272.336 41.6671 272.454 40.9919 272.454 40.222C272.454 39.4046 272.348 38.7057 272.135 38.1253C271.935 37.533 271.611 37.0829 271.163 36.7749C270.726 36.4551 270.155 36.2951 269.447 36.2951H266.37V57.8483H261.188V31.9774ZM272.878 57.8483L268.156 46.3166L273.586 46.2988L278.414 57.5996V57.8483H272.878Z" fill="white"/>
<path d="M290.546 36.5972L285.01 57.8483H279.545L287.592 31.9774H291.005L290.546 36.5972ZM294.914 57.8483L289.343 36.5972L288.83 31.9774H292.296L300.414 57.8483H294.914ZM295.108 48.2V52.5178H283.489V48.2H295.108Z" fill="white"/>
<path d="M319.974 44.2554V54.9165C319.608 55.3074 319.072 55.7635 318.364 56.2847C317.669 56.7941 316.755 57.2442 315.623 57.6351C314.503 58.0142 313.136 58.2037 311.52 58.2037C310.094 58.2037 308.797 57.9786 307.63 57.5285C306.474 57.0784 305.478 56.3972 304.641 55.4851C303.815 54.5612 303.185 53.4121 302.748 52.038C302.312 50.6521 302.094 49.0115 302.094 47.1162V42.7096C302.094 40.838 302.3 39.2092 302.713 37.8232C303.137 36.4254 303.751 35.2646 304.552 34.3406C305.354 33.4166 306.309 32.7296 307.417 32.2795C308.537 31.8293 309.799 31.6042 311.202 31.6042C313.136 31.6042 314.721 31.93 315.959 32.5815C317.209 33.233 318.152 34.1985 318.789 35.4778C319.437 36.7571 319.826 38.3267 319.956 40.1864H314.951C314.869 39.0966 314.686 38.2437 314.403 37.6278C314.132 37.0118 313.749 36.5735 313.253 36.3129C312.758 36.0405 312.116 35.9042 311.326 35.9042C310.642 35.9042 310.047 36.0286 309.54 36.2774C309.033 36.5143 308.608 36.9052 308.266 37.4501C307.924 37.995 307.671 38.6939 307.506 39.5468C307.341 40.3997 307.258 41.4421 307.258 42.674V47.1162C307.258 48.3363 307.352 49.3787 307.541 50.2434C307.73 51.1082 308.007 51.813 308.372 52.3579C308.75 52.9028 309.221 53.2996 309.787 53.5484C310.365 53.7853 311.043 53.9037 311.821 53.9037C312.446 53.9037 312.947 53.8386 313.324 53.7083C313.701 53.578 314.002 53.4418 314.226 53.2996C314.462 53.1456 314.656 53.0272 314.81 52.9442V48.1823H311.114V44.2554H319.974Z" fill="white"/>
<path d="M335.271 31.9774H340.436V49.7459C340.436 51.736 340.07 53.3588 339.339 54.6145C338.62 55.8583 337.624 56.7704 336.35 57.3508C335.077 57.9194 333.621 58.2037 331.982 58.2037C330.331 58.2037 328.864 57.9194 327.578 57.3508C326.293 56.7704 325.291 55.8583 324.572 54.6145C323.865 53.3588 323.511 51.736 323.511 49.7459V31.9774H328.675V49.7459C328.675 50.8712 328.799 51.736 329.046 52.3401C329.306 52.9442 329.677 53.3588 330.16 53.5839C330.656 53.7971 331.263 53.9037 331.982 53.9037C332.713 53.9037 333.314 53.7971 333.786 53.5839C334.269 53.3588 334.635 52.9442 334.882 52.3401C335.142 51.736 335.271 50.8712 335.271 49.7459V31.9774Z" fill="white"/>
<path d="M359.164 53.5484V57.8483H347.969V53.5484H359.164ZM349.579 31.9774V57.8483H344.397V31.9774H349.579ZM357.661 42.4608V46.6364H347.969V42.4608H357.661ZM359.129 31.9774V36.2951H347.969V31.9774H359.129Z" fill="white"/>
<path d="M175.327 92.964L179.447 70.9666H182.171L182.984 74.3781L178.563 96.8375H175.61L175.327 92.964ZM173.912 70.9666L177.237 93.0173L176.671 96.8375H173.417L168.801 70.9666H173.912ZM185.973 92.9285L189.28 70.9666H194.374L189.793 96.8375H186.521L185.973 92.9285ZM183.745 70.9666L187.901 93.0884L187.565 96.8375H184.611L180.208 74.3426L181.039 70.9666H183.745Z" fill="white"/>
<path d="M215.331 81.8942V86.212C215.331 88.0362 215.107 89.6354 214.658 91.0095C214.222 92.3717 213.597 93.5148 212.784 94.4388C211.982 95.3509 211.009 96.038 209.866 96.4999C208.734 96.9619 207.478 97.1929 206.099 97.1929C204.719 97.1929 203.458 96.9619 202.314 96.4999C201.182 96.038 200.204 95.3509 199.378 94.4388C198.565 93.5148 197.934 92.3717 197.486 91.0095C197.038 89.6354 196.814 88.0362 196.814 86.212V81.8942C196.814 80.0226 197.032 78.3879 197.468 76.9901C197.905 75.5805 198.535 74.4077 199.361 73.4719C200.186 72.5243 201.165 71.8135 202.297 71.3397C203.428 70.854 204.684 70.6112 206.063 70.6112C207.443 70.6112 208.699 70.854 209.83 71.3397C210.962 71.8135 211.941 72.5243 212.766 73.4719C213.591 74.4077 214.222 75.5805 214.658 76.9901C215.107 78.3879 215.331 80.0226 215.331 81.8942ZM210.184 86.212V81.8587C210.184 80.6267 210.096 79.5784 209.919 78.7137C209.742 77.8371 209.477 77.1204 209.123 76.5637C208.769 76.0069 208.339 75.5982 207.832 75.3376C207.325 75.077 206.736 74.9467 206.063 74.9467C205.391 74.9467 204.796 75.077 204.277 75.3376C203.77 75.5982 203.34 76.0069 202.986 76.5637C202.644 77.1204 202.385 77.8371 202.208 78.7137C202.043 79.5784 201.961 80.6267 201.961 81.8587V86.212C201.961 87.3965 202.049 88.4093 202.226 89.2504C202.403 90.0914 202.668 90.7785 203.022 91.3115C203.375 91.8446 203.806 92.2414 204.313 92.502C204.831 92.7508 205.427 92.8752 206.099 92.8752C206.759 92.8752 207.343 92.7508 207.85 92.502C208.368 92.2414 208.799 91.8446 209.141 91.3115C209.483 90.7785 209.742 90.0914 209.919 89.2504C210.096 88.4093 210.184 87.3965 210.184 86.212Z" fill="white"/>
<path d="M219.115 70.9666H227.374C229.095 70.9666 230.563 71.2627 231.778 71.855C232.992 72.4473 233.924 73.3239 234.572 74.4847C235.22 75.6456 235.545 77.0789 235.545 78.7847C235.545 80.1825 235.356 81.3789 234.979 82.374C234.601 83.3572 234.065 84.1804 233.369 84.8438C232.674 85.4953 231.843 86.0165 230.876 86.4074L229.302 87.3492H222.599L222.581 83.0314H227.233C227.94 83.0314 228.524 82.8774 228.983 82.5694C229.455 82.2496 229.803 81.8054 230.027 81.2368C230.263 80.6563 230.381 79.9811 230.381 79.2112C230.381 78.3938 230.275 77.6949 230.062 77.1145C229.862 76.5222 229.538 76.0721 229.09 75.7641C228.653 75.4442 228.082 75.2843 227.374 75.2843H224.297V96.8375H219.115V70.9666ZM230.805 96.8375L226.083 85.3058L231.512 85.288L236.341 96.5888V96.8375H230.805Z" fill="white"/>
<path d="M253.442 92.5376V96.8375H242.743V92.5376H253.442ZM244.334 70.9666V96.8375H239.152V70.9666H244.334Z" fill="white"/>
<path d="M263.204 96.8375H258.659L258.695 92.5376H263.204C264.454 92.5376 265.427 92.3125 266.122 91.8624C266.818 91.4122 267.307 90.7015 267.59 89.7301C267.885 88.7588 268.032 87.4854 268.032 85.9099V81.8764C268.032 80.68 267.956 79.6672 267.802 78.838C267.649 77.997 267.39 77.3218 267.024 76.8124C266.659 76.2912 266.17 75.9062 265.556 75.6575C264.943 75.4087 264.183 75.2843 263.275 75.2843H258.571V70.9666H263.275C264.761 70.9666 266.111 71.2094 267.325 71.6951C268.539 72.1808 269.583 72.8915 270.455 73.8273C271.328 74.7513 272 75.8944 272.471 77.2566C272.943 78.6189 273.179 80.1707 273.179 81.912V85.9099C273.179 87.6631 272.943 89.2148 272.471 90.5653C272 91.9157 271.328 93.0588 270.455 93.9946C269.595 94.9185 268.551 95.6234 267.325 96.109C266.099 96.5947 264.725 96.8375 263.204 96.8375ZM261.666 70.9666V96.8375H256.484V70.9666H261.666Z" fill="white"/>
<path d="M303.403 81.8942V86.212C303.403 88.0362 303.179 89.6354 302.731 91.0095C302.295 92.3717 301.67 93.5148 300.856 94.4388C300.054 95.3509 299.082 96.038 297.938 96.4999C296.806 96.9619 295.551 97.1929 294.171 97.1929C292.792 97.1929 291.53 96.9619 290.386 96.4999C289.255 96.038 288.276 95.3509 287.451 94.4388C286.637 93.5148 286.006 92.3717 285.558 91.0095C285.11 89.6354 284.886 88.0362 284.886 86.212V81.8942C284.886 80.0226 285.104 78.3879 285.541 76.9901C285.977 75.5805 286.608 74.4077 287.433 73.4719C288.258 72.5243 289.237 71.8135 290.369 71.3397C291.501 70.854 292.756 70.6112 294.136 70.6112C295.515 70.6112 296.771 70.854 297.903 71.3397C299.035 71.8135 300.013 72.5243 300.838 73.4719C301.664 74.4077 302.295 75.5805 302.731 76.9901C303.179 78.3879 303.403 80.0226 303.403 81.8942ZM298.256 86.212V81.8587C298.256 80.6267 298.168 79.5784 297.991 78.7137C297.814 77.8371 297.549 77.1204 297.195 76.5637C296.842 76.0069 296.411 75.5982 295.904 75.3376C295.397 75.077 294.808 74.9467 294.136 74.9467C293.464 74.9467 292.868 75.077 292.35 75.3376C291.843 75.5982 291.412 76.0069 291.059 76.5637C290.717 77.1204 290.457 77.8371 290.28 78.7137C290.115 79.5784 290.033 80.6267 290.033 81.8587V86.212C290.033 87.3965 290.121 88.4093 290.298 89.2504C290.475 90.0914 290.74 90.7785 291.094 91.3115C291.448 91.8446 291.878 92.2414 292.385 92.502C292.904 92.7508 293.499 92.8752 294.171 92.8752C294.831 92.8752 295.415 92.7508 295.922 92.502C296.441 92.2414 296.871 91.8446 297.213 91.3115C297.555 90.7785 297.814 90.0914 297.991 89.2504C298.168 88.4093 298.256 87.3965 298.256 86.212Z" fill="white"/>
<path d="M312.351 70.9666V96.8375H307.17V70.9666H312.351ZM320.416 81.9653V86.2653H311.043V81.9653H320.416ZM321.406 70.9666V75.2843H311.043V70.9666H321.406Z" fill="white"/>
<path d="M341.974 70.9666V96.8375H336.828V70.9666H341.974ZM348.376 70.9666V75.2843H330.55V70.9666H348.376Z" fill="white"/>
<path d="M358.581 75.5864L353.045 96.8375H347.58L355.627 70.9666H359.04L358.581 75.5864ZM362.949 96.8375L357.378 75.5864L356.865 70.9666H360.331L368.449 96.8375H362.949ZM363.143 87.1892V91.507H351.524V87.1892H363.143Z" fill="white"/>
<path d="M388.911 70.9666V96.8375H383.906L375.824 80.6504V96.8375H370.907V70.9666H375.841L383.994 87.3314V70.9666H388.911Z" fill="white"/>
<path d="M398.266 70.9666V96.8375H393.084V70.9666H398.266ZM411.053 70.9666L402.705 83.8132L397.594 90.2099L396.604 85.0037L399.911 79.4599L404.757 70.9666H411.053ZM405.075 96.8375L399.451 84.9504L403.253 81.5744L411.176 96.8375H405.075Z" fill="white"/>
<path d="M424.033 90.0322C424.033 89.5702 423.992 89.1497 423.91 88.7706C423.827 88.3916 423.65 88.0421 423.379 87.7223C423.12 87.4025 422.737 87.0826 422.23 86.7628C421.734 86.443 421.086 86.1113 420.284 85.7678C419.329 85.365 418.404 84.9386 417.508 84.4884C416.612 84.0264 415.804 83.4934 415.085 82.8893C414.366 82.2851 413.794 81.5744 413.369 80.757C412.957 79.9278 412.75 78.9565 412.75 77.843C412.75 76.7532 412.945 75.7641 413.334 74.8757C413.735 73.9872 414.301 73.2291 415.032 72.6013C415.763 71.9616 416.617 71.47 417.596 71.1265C418.586 70.783 419.689 70.6112 420.903 70.6112C422.554 70.6112 423.98 70.9547 425.183 71.6418C426.397 72.3288 427.335 73.2706 427.995 74.467C428.667 75.6634 429.003 77.0375 429.003 78.5893H423.839C423.839 77.8548 423.733 77.2093 423.521 76.6525C423.32 76.0839 422.996 75.6397 422.548 75.3199C422.1 75 421.522 74.8401 420.815 74.8401C420.155 74.8401 419.606 74.9763 419.17 75.2488C418.746 75.5094 418.427 75.8707 418.215 76.3327C418.015 76.7828 417.914 77.2922 417.914 77.8608C417.914 78.2872 418.015 78.6722 418.215 79.0157C418.427 79.3474 418.716 79.6495 419.082 79.9219C419.447 80.1825 419.877 80.4372 420.373 80.686C420.88 80.9347 421.434 81.1776 422.035 81.4145C423.202 81.8764 424.234 82.3858 425.13 82.9426C426.026 83.4875 426.775 84.1034 427.376 84.7905C427.977 85.4657 428.431 86.2297 428.738 87.0826C429.044 87.9355 429.198 88.9069 429.198 89.9967C429.198 91.0746 429.009 92.0578 428.632 92.9462C428.266 93.8228 427.73 94.5809 427.022 95.2206C426.315 95.8484 425.46 96.3341 424.458 96.6776C423.468 97.0211 422.359 97.1929 421.133 97.1929C419.942 97.1929 418.816 97.0271 417.755 96.6954C416.694 96.3519 415.757 95.8366 414.943 95.1495C414.142 94.4506 413.511 93.5681 413.051 92.502C412.591 91.4241 412.361 90.1507 412.361 88.6818H417.543C417.543 89.4636 417.62 90.1329 417.773 90.6896C417.926 91.2345 418.162 91.6728 418.48 92.0045C418.799 92.3243 419.188 92.5672 419.648 92.733C420.119 92.887 420.656 92.964 421.257 92.964C421.941 92.964 422.483 92.8337 422.884 92.5731C423.297 92.3125 423.591 91.963 423.768 91.5247C423.945 91.0865 424.033 90.5889 424.033 90.0322Z" fill="white"/>
<path d="M278.778 262.896V267.162H263.197V263.519L270.352 254.345C271.042 253.381 271.581 252.539 271.968 251.819C272.356 251.086 272.634 250.433 272.804 249.859C272.973 249.273 273.058 248.724 273.058 248.211C273.058 247.418 272.967 246.741 272.786 246.179C272.604 245.605 272.332 245.166 271.968 244.861C271.617 244.543 271.181 244.385 270.661 244.385C270.031 244.385 269.511 244.58 269.099 244.971C268.687 245.361 268.379 245.898 268.173 246.582C267.979 247.253 267.882 248.016 267.882 248.871H262.779C262.779 247.272 263.1 245.807 263.742 244.476C264.396 243.146 265.31 242.09 266.484 241.309C267.67 240.515 269.093 240.118 270.752 240.118C272.374 240.118 273.73 240.424 274.82 241.034C275.921 241.644 276.751 242.517 277.307 243.652C277.877 244.775 278.161 246.118 278.161 247.68C278.161 248.572 278.046 249.438 277.816 250.281C277.586 251.111 277.259 251.941 276.835 252.771C276.412 253.589 275.891 254.425 275.274 255.279C274.656 256.134 273.96 257.019 273.185 257.934L269.735 262.896H278.778Z" fill="white"/>
<path d="M297.356 251.489V256.121C297.356 258.123 297.169 259.844 296.793 261.285C296.418 262.725 295.891 263.909 295.213 264.837C294.536 265.753 293.73 266.43 292.798 266.869C291.866 267.309 290.837 267.529 289.711 267.529C288.815 267.529 287.974 267.388 287.187 267.107C286.4 266.827 285.685 266.399 285.044 265.826C284.414 265.24 283.869 264.501 283.409 263.61C282.961 262.707 282.616 261.639 282.374 260.406C282.132 259.161 282.011 257.733 282.011 256.121V251.489C282.011 249.487 282.199 247.772 282.574 246.344C282.961 244.903 283.494 243.725 284.172 242.81C284.85 241.894 285.655 241.223 286.587 240.796C287.532 240.356 288.567 240.137 289.693 240.137C290.577 240.137 291.412 240.277 292.199 240.558C292.998 240.826 293.706 241.248 294.324 241.821C294.953 242.395 295.492 243.133 295.94 244.037C296.4 244.928 296.751 245.996 296.993 247.241C297.235 248.474 297.356 249.89 297.356 251.489ZM292.253 256.836V250.738C292.253 249.798 292.211 248.974 292.126 248.266C292.054 247.558 291.951 246.96 291.818 246.472C291.684 245.984 291.509 245.587 291.291 245.282C291.073 244.977 290.831 244.757 290.564 244.623C290.298 244.476 290.002 244.403 289.675 244.403C289.287 244.403 288.936 244.513 288.621 244.733C288.307 244.952 288.034 245.312 287.804 245.813C287.574 246.301 287.399 246.954 287.277 247.772C287.169 248.578 287.114 249.566 287.114 250.738V256.836C287.114 257.775 287.15 258.605 287.223 259.326C287.308 260.046 287.423 260.662 287.568 261.175C287.725 261.675 287.901 262.078 288.095 262.383C288.3 262.689 288.537 262.914 288.803 263.061C289.081 263.195 289.384 263.262 289.711 263.262C290.098 263.262 290.449 263.152 290.764 262.933C291.091 262.701 291.364 262.335 291.581 261.834C291.799 261.334 291.963 260.675 292.072 259.857C292.193 259.027 292.253 258.02 292.253 256.836Z" fill="white"/>
<path d="M316.406 262.896V267.162H300.825V263.519L307.98 254.345C308.67 253.381 309.209 252.539 309.596 251.819C309.984 251.086 310.262 250.433 310.432 249.859C310.601 249.273 310.686 248.724 310.686 248.211C310.686 247.418 310.595 246.741 310.414 246.179C310.232 245.605 309.96 245.166 309.596 244.861C309.245 244.543 308.809 244.385 308.289 244.385C307.659 244.385 307.139 244.58 306.727 244.971C306.315 245.361 306.007 245.898 305.801 246.582C305.607 247.253 305.51 248.016 305.51 248.871H300.407C300.407 247.272 300.728 245.807 301.37 244.476C302.024 243.146 302.938 242.09 304.112 241.309C305.298 240.515 306.721 240.118 308.38 240.118C310.002 240.118 311.358 240.424 312.448 241.034C313.549 241.644 314.379 242.517 314.936 243.652C315.505 244.775 315.789 246.118 315.789 247.68C315.789 248.572 315.674 249.438 315.444 250.281C315.214 251.111 314.887 251.941 314.463 252.771C314.04 253.589 313.519 254.425 312.902 255.279C312.284 256.134 311.588 257.019 310.813 257.934L307.363 262.896H316.406Z" fill="white"/>
<path d="M335.221 262.896V267.162H319.639V263.519L326.794 254.345C327.484 253.381 328.023 252.539 328.41 251.819C328.798 251.086 329.076 250.433 329.246 249.859C329.415 249.273 329.5 248.724 329.5 248.211C329.5 247.418 329.409 246.741 329.228 246.179C329.046 245.605 328.774 245.166 328.41 244.861C328.059 244.543 327.623 244.385 327.103 244.385C326.473 244.385 325.953 244.58 325.541 244.971C325.129 245.361 324.821 245.898 324.615 246.582C324.421 247.253 324.324 248.016 324.324 248.871H319.221C319.221 247.272 319.542 245.807 320.184 244.476C320.838 243.146 321.752 242.09 322.926 241.309C324.112 240.515 325.535 240.118 327.194 240.118C328.816 240.118 330.172 240.424 331.262 241.034C332.363 241.644 333.193 242.517 333.75 243.652C334.319 244.775 334.603 246.118 334.603 247.68C334.603 248.572 334.488 249.438 334.258 250.281C334.028 251.111 333.701 251.941 333.277 252.771C332.854 253.589 332.333 254.425 331.716 255.279C331.098 256.134 330.402 257.019 329.627 257.934L326.177 262.896H335.221Z" fill="white"/>
<path fill-rule="evenodd" clip-rule="evenodd" d="M546.103 38.9712C545.455 39.2739 544.685 38.9938 544.379 38.3473C544.297 38.1749 544.216 38.0027 544.134 37.8305C543.827 37.1846 544.097 36.4108 544.742 36.1005L559.911 28.7965C560.555 28.4862 561.329 28.7569 561.637 29.4027C561.751 29.6433 561.865 29.8839 561.979 30.1248C562.285 30.7715 562.005 31.5424 561.357 31.8451L546.103 38.9712ZM35.302 34.7567C34.6507 34.4612 34.362 33.6935 34.6604 33.0435C34.7596 32.8273 34.8591 32.6113 34.9588 32.3955C35.2589 31.7462 36.03 31.4666 36.6779 31.7696L51.9293 38.9C52.5772 39.203 52.8566 39.9736 52.5568 40.623C52.4881 40.7718 52.4195 40.9207 52.3511 41.0697C52.0524 41.7196 51.2852 42.0082 50.6338 41.7127L35.302 34.7567ZM550.965 50.012C550.304 50.2856 549.547 49.9716 549.27 49.3121C549.197 49.1376 549.124 48.9632 549.05 48.7889C548.772 48.13 549.077 47.369 549.734 47.0877L565.213 40.4653C565.871 40.1839 566.632 40.4889 566.91 41.1477C567.014 41.3918 567.116 41.636 567.219 41.8803C567.495 42.54 567.181 43.2976 566.52 43.5713L550.965 50.012ZM30.3901 46.2383C29.7266 45.9713 29.4048 45.2169 29.6748 44.5545C29.764 44.3356 29.8535 44.1168 29.9433 43.8981C30.2149 43.2364 30.9732 42.9237 31.6336 43.1982L47.1798 49.6608C47.8403 49.9354 48.1528 50.6932 47.8814 51.355C47.8198 51.5053 47.7582 51.6558 47.6968 51.8062C47.4267 52.4685 46.6726 52.7901 46.0091 52.5231L30.3901 46.2383ZM555.332 61.2607C554.659 61.5046 553.917 61.1571 553.67 60.4859C553.604 60.3072 553.538 60.1285 553.472 59.9499C553.223 59.2792 553.562 58.5325 554.231 58.2807L569.989 52.3538C570.659 52.102 571.406 52.4405 571.655 53.1111C571.747 53.3609 571.84 53.6108 571.932 53.8609C572.178 54.5322 571.831 55.2751 571.159 55.519L555.332 61.2607ZM25.9797 57.9256C25.3052 57.6877 24.951 56.9479 25.192 56.2744C25.2721 56.0505 25.3525 55.8267 25.4332 55.603C25.6758 54.9301 26.4198 54.5848 27.0915 54.8304L42.9035 60.6124C43.5752 60.858 43.9204 61.6016 43.678 62.2745C43.6225 62.4286 43.5671 62.5827 43.5119 62.7369C43.2707 63.4103 42.5313 63.7643 41.8568 63.5263L25.9797 57.9256ZM559.192 72.6901C558.51 72.9038 557.783 72.5237 557.566 71.8421C557.509 71.6617 557.451 71.4813 557.393 71.301C557.175 70.62 557.546 69.8891 558.226 69.6674L574.233 64.4486C574.913 64.2269 575.644 64.5983 575.863 65.2794C575.944 65.5319 576.025 65.7845 576.105 66.0374C576.322 66.719 575.942 67.4457 575.259 67.6594L559.192 72.6901ZM22.0818 69.7912C21.3976 69.5828 21.0116 68.8591 21.2231 68.1758C21.293 67.9497 21.3633 67.7237 21.4338 67.4978C21.647 66.8151 22.3752 66.4378 23.057 66.654L39.1052 71.7436C39.787 71.9598 40.1641 72.6877 39.9512 73.3705C39.9028 73.5258 39.8545 73.6811 39.8063 73.8365C39.5946 74.5197 38.8713 74.9055 38.1871 74.697L22.0818 69.7912ZM562.54 84.2815C561.848 84.4646 561.14 84.0524 560.953 83.3619C560.904 83.1782 560.854 82.9947 560.804 82.8112C560.616 82.1211 561.02 81.4074 561.709 81.2162L577.932 76.7159C578.621 76.5247 579.335 76.9284 579.524 77.6184C579.594 77.8751 579.663 78.132 579.732 78.389C579.919 79.0796 579.506 79.7886 578.815 79.9717L562.54 84.2815ZM18.7025 81.8161C18.0099 81.6376 17.5928 80.9313 17.7744 80.2395C17.8347 80.0098 17.8953 79.7801 17.9562 79.5506C18.1395 78.8592 18.8507 78.4506 19.5412 78.637L35.7953 83.0249C36.4858 83.2113 36.8942 83.9222 36.7111 84.6136C36.6693 84.7716 36.6276 84.9297 36.586 85.0878C36.4042 85.7796 35.6983 86.1964 35.0057 86.0179L18.7025 81.8161ZM565.368 96.0114C564.669 96.1636 563.98 95.7203 563.824 95.0221C563.783 94.8365 563.741 94.6509 563.7 94.4655C563.543 93.7676 563.977 93.0727 564.674 92.9123L581.082 89.139C581.779 88.9787 582.474 89.4138 582.632 90.1115C582.69 90.371 582.748 90.6305 582.806 90.8902C582.961 91.5884 582.518 92.2784 581.819 92.4305L565.368 96.0114ZM15.8483 93.9766C15.1486 93.8283 14.7013 93.1408 14.8527 92.4418C14.903 92.2098 14.9535 91.9779 15.0043 91.7461C15.1575 91.0474 15.8503 90.6083 16.5482 90.7646L32.9775 94.4429C33.6754 94.5991 34.1143 95.2916 33.9613 95.9903C33.9264 96.1499 33.8916 96.3096 33.8569 96.4694C33.7053 97.1684 33.0182 97.6154 32.3185 97.4672L15.8483 93.9766ZM567.671 107.853C566.966 107.974 566.297 107.501 566.173 106.797C566.14 106.61 566.107 106.423 566.073 106.236C565.948 105.532 566.413 104.857 567.116 104.728L583.676 101.688C584.379 101.559 585.054 102.024 585.18 102.728C585.227 102.989 585.273 103.251 585.319 103.512C585.444 104.216 584.97 104.886 584.265 105.007L567.671 107.853ZM13.5246 106.246C12.8191 106.128 12.3424 105.46 12.4635 104.755C12.5035 104.522 12.5438 104.289 12.5844 104.056C12.7072 103.351 13.3803 102.883 14.0844 103.008L30.6575 105.972C31.3616 106.098 31.83 106.77 31.7075 107.475C31.6796 107.636 31.6518 107.796 31.6242 107.957C31.5029 108.662 30.8358 109.138 30.1303 109.02L13.5246 106.246ZM569.448 119.795C568.739 119.884 568.091 119.382 567.998 118.672C567.973 118.482 567.948 118.292 567.923 118.101C567.828 117.392 568.323 116.739 569.031 116.641L585.709 114.337C586.418 114.239 587.072 114.734 587.166 115.443C587.202 115.709 587.237 115.974 587.271 116.239C587.364 116.948 586.861 117.596 586.152 117.686L569.448 119.795ZM11.7323 118.61C11.0224 118.523 10.5174 117.876 10.6079 117.167C10.6381 116.93 10.6686 116.693 10.6994 116.456C10.7916 115.747 11.4439 115.25 12.1527 115.345L28.8383 117.59C29.5472 117.685 30.0442 118.337 29.9522 119.047C29.931 119.21 29.9099 119.374 29.8889 119.538C29.7982 120.248 29.1523 120.753 28.4424 120.665L11.7323 118.61ZM570.695 131.793C569.982 131.851 569.358 131.321 569.296 130.608C569.28 130.42 569.263 130.232 569.247 130.044C569.183 129.332 569.706 128.701 570.419 128.634L587.182 127.069C587.894 127.002 588.525 127.526 588.589 128.238C588.612 128.501 588.635 128.763 588.658 129.026C588.719 129.739 588.188 130.364 587.475 130.422L570.695 131.793ZM10.4752 131.027C9.76221 130.97 9.22994 130.346 9.28987 129.633C9.30957 129.399 9.32954 129.165 9.34978 128.931C9.41143 128.218 10.0417 127.693 10.754 127.758L27.5207 129.283C28.233 129.348 28.7576 129.978 28.6962 130.691C28.6823 130.852 28.6685 131.014 28.6549 131.175C28.5947 131.888 27.971 132.42 27.258 132.363L10.4752 131.027ZM571.415 143.846C570.7 143.873 570.099 143.315 570.069 142.6C570.06 142.409 570.052 142.218 570.044 142.026C570.012 141.312 570.562 140.704 571.276 140.669L588.092 139.84C588.806 139.805 589.414 140.355 589.446 141.07C589.458 141.336 589.47 141.601 589.481 141.867C589.511 142.582 588.953 143.183 588.239 143.21L571.415 143.846ZM9.75015 143.492C9.03539 143.466 8.47699 142.865 8.50643 142.15C8.51621 141.913 8.52627 141.676 8.53662 141.439C8.56779 140.724 9.17506 140.173 9.88949 140.207L26.706 141.015C27.4205 141.049 27.9715 141.656 27.9405 142.371C27.9334 142.535 27.9264 142.7 27.9196 142.865C27.8899 143.579 27.2895 144.138 26.5747 144.111L9.75015 143.492ZM570.317 154.334C570.317 154.237 570.317 154.14 570.317 154.043C570.316 153.328 570.893 152.745 571.608 152.741L588.443 152.645C589.159 152.641 589.742 153.217 589.743 153.932C589.743 154.066 589.743 154.2 589.743 154.334C589.743 154.454 589.743 154.574 589.743 154.694C589.742 155.409 589.159 155.985 588.444 155.981L571.608 155.888C570.893 155.884 570.317 155.301 570.317 154.585C570.317 154.502 570.317 154.418 570.317 154.334ZM8.25586 154.334C8.25586 154.215 8.25593 154.095 8.25608 153.975C8.25694 153.26 8.84028 152.683 9.55552 152.687L26.3912 152.781C27.1064 152.785 27.6827 153.368 27.6821 154.083C27.682 154.167 27.6819 154.251 27.6819 154.334C27.6819 154.418 27.682 154.502 27.6821 154.585C27.6827 155.301 27.1064 155.884 26.3912 155.888L9.55552 155.981C8.84028 155.985 8.25694 155.409 8.25608 154.694C8.25593 154.574 8.25586 154.454 8.25586 154.334ZM9.88948 168.462C9.17506 168.496 8.56779 167.945 8.53661 167.23C8.52627 166.993 8.51621 166.756 8.50643 166.519C8.47699 165.804 9.03539 165.203 9.75015 165.177L26.5747 164.558C27.2895 164.531 27.8899 165.089 27.9196 165.804C27.9264 165.969 27.9334 166.134 27.9405 166.298C27.9715 167.013 27.4205 167.62 26.706 167.654L9.88948 168.462ZM571.293 167.654C570.579 167.62 570.028 167.013 570.059 166.298C570.066 166.134 570.073 165.969 570.08 165.804C570.109 165.089 570.71 164.531 571.424 164.558L588.249 165.177C588.964 165.203 589.522 165.804 589.493 166.519C589.483 166.756 589.473 166.993 589.463 167.23C589.431 167.945 588.824 168.496 588.11 168.462L571.293 167.654ZM10.754 180.911C10.0417 180.976 9.41142 180.451 9.34978 179.738C9.32953 179.504 9.30956 179.27 9.28987 179.036C9.22994 178.323 9.76221 177.699 10.4752 177.642L27.258 176.306C27.971 176.249 28.5947 176.781 28.6549 177.494C28.6685 177.655 28.6823 177.817 28.6962 177.978C28.7576 178.691 28.233 179.321 27.5207 179.386L10.754 180.911ZM570.479 179.386C569.766 179.321 569.242 178.691 569.303 177.978C569.317 177.817 569.331 177.655 569.344 177.494C569.405 176.781 570.028 176.249 570.741 176.306L587.524 177.642C588.237 177.699 588.769 178.323 588.709 179.036C588.69 179.27 588.67 179.504 588.649 179.738C588.588 180.451 587.958 180.976 587.245 180.911L570.479 179.386ZM12.1527 193.324C11.4439 193.419 10.7916 192.922 10.6994 192.213C10.6686 191.976 10.6381 191.739 10.6079 191.502C10.5174 190.793 11.0224 190.146 11.7323 190.059L28.4424 188.004C29.1523 187.916 29.7982 188.421 29.8889 189.131C29.9099 189.295 29.931 189.458 29.9522 189.622C30.0442 190.332 29.5472 190.983 28.8383 191.079L12.1527 193.324ZM569.161 191.079C568.452 190.983 567.955 190.332 568.047 189.622C568.068 189.458 568.089 189.295 568.11 189.131C568.201 188.421 568.847 187.916 569.557 188.004L586.267 190.059C586.977 190.146 587.482 190.793 587.391 191.502C587.361 191.739 587.331 191.976 587.3 192.213C587.208 192.922 586.555 193.419 585.846 193.324L569.161 191.079ZM14.0844 205.66C13.3803 205.786 12.7072 205.318 12.5844 204.613C12.5438 204.38 12.5035 204.147 12.4635 203.913C12.3424 203.209 12.8191 202.541 13.5246 202.423L30.1303 199.649C30.8358 199.531 31.5029 200.007 31.6242 200.712C31.6518 200.873 31.6796 201.033 31.7075 201.194C31.83 201.899 31.3616 202.571 30.6575 202.697L14.0844 205.66ZM567.342 202.697C566.638 202.571 566.169 201.899 566.292 201.194C566.32 201.033 566.347 200.873 566.375 200.712C566.496 200.007 567.163 199.531 567.869 199.649L584.475 202.423C585.18 202.541 585.657 203.209 585.536 203.913C585.496 204.147 585.455 204.38 585.415 204.613C585.292 205.318 584.619 205.786 583.915 205.66L567.342 202.697ZM16.5482 217.904C15.8503 218.061 15.1575 217.622 15.0043 216.923C14.9535 216.691 14.903 216.459 14.8527 216.227C14.7013 215.528 15.1486 214.841 15.8483 214.692L32.3185 211.202C33.0182 211.053 33.7053 211.501 33.8569 212.2C33.8916 212.359 33.9264 212.519 33.9613 212.679C34.1142 213.377 33.6754 214.07 32.9775 214.226L16.5482 217.904ZM565.022 214.226C564.324 214.07 563.885 213.377 564.038 212.679C564.073 212.519 564.108 212.359 564.142 212.2C564.294 211.501 564.981 211.053 565.681 211.202L582.151 214.692C582.851 214.841 583.298 215.528 583.146 216.227C583.096 216.459 583.046 216.691 582.995 216.923C582.842 217.622 582.149 218.061 581.451 217.904L565.022 214.226ZM19.5412 230.032C18.8507 230.218 18.1395 229.81 17.9562 229.118C17.8953 228.889 17.8347 228.659 17.7744 228.429C17.5928 227.738 18.0099 227.031 18.7025 226.853L35.0057 222.651C35.6983 222.473 36.4042 222.889 36.586 223.581C36.6276 223.739 36.6693 223.897 36.7111 224.055C36.8942 224.747 36.4858 225.458 35.7953 225.644L19.5412 230.032ZM562.204 225.644C561.513 225.458 561.105 224.747 561.288 224.055C561.33 223.897 561.372 223.739 561.413 223.581C561.595 222.889 562.301 222.473 562.994 222.651L579.297 226.853C579.989 227.031 580.406 227.738 580.225 228.429C580.165 228.659 580.104 228.889 580.043 229.118C579.86 229.81 579.148 230.218 578.458 230.032L562.204 225.644ZM23.057 242.015C22.3752 242.231 21.647 241.854 21.4338 241.171C21.3633 240.945 21.293 240.719 21.2231 240.493C21.0116 239.81 21.3976 239.086 22.0818 238.878L38.1871 233.972C38.8713 233.764 39.5946 234.149 39.8063 234.833C39.8545 234.988 39.9028 235.143 39.9512 235.298C40.1641 235.981 39.787 236.709 39.1052 236.925L23.057 242.015ZM558.894 236.925C558.212 236.709 557.835 235.981 558.048 235.298C558.096 235.143 558.145 234.988 558.193 234.833C558.405 234.149 559.128 233.764 559.812 233.972L575.917 238.878C576.602 239.086 576.988 239.81 576.776 240.493C576.706 240.719 576.636 240.945 576.565 241.171C576.352 241.854 575.624 242.231 574.942 242.015L558.894 236.925ZM27.0915 253.839C26.4198 254.084 25.6758 253.739 25.4332 253.066C25.3525 252.842 25.2721 252.619 25.192 252.395C24.951 251.721 25.3052 250.981 25.9798 250.743L41.8568 245.143C42.5313 244.905 43.2707 245.259 43.5119 245.932C43.5671 246.086 43.6225 246.24 43.678 246.394C43.9204 247.067 43.5752 247.811 42.9035 248.057L27.0915 253.839ZM555.096 248.057C554.424 247.811 554.079 247.067 554.321 246.394C554.377 246.24 554.432 246.086 554.487 245.932C554.729 245.259 555.468 244.905 556.142 245.143L572.019 250.743C572.694 250.981 573.048 251.721 572.807 252.395C572.727 252.619 572.647 252.842 572.566 253.066C572.323 253.739 571.579 254.084 570.908 253.839L555.096 248.057ZM31.6336 265.471C30.9732 265.745 30.2149 265.433 29.9433 264.771C29.8536 264.552 29.7641 264.333 29.6748 264.115C29.4049 263.452 29.7266 262.698 30.3902 262.431L46.0091 256.146C46.6726 255.879 47.4267 256.201 47.6969 256.863C47.7583 257.013 47.8198 257.164 47.8814 257.314C48.1528 257.976 47.8403 258.734 47.1798 259.008L31.6336 265.471ZM550.819 259.008C550.159 258.734 549.846 257.976 550.118 257.314C550.179 257.164 550.241 257.013 550.302 256.863C550.573 256.201 551.327 255.879 551.99 256.146L567.609 262.431C568.273 262.698 568.594 263.452 568.324 264.115C568.235 264.333 568.146 264.552 568.056 264.771C567.784 265.433 567.026 265.745 566.366 265.471L550.819 259.008Z" fill="white"/>
<path fill-rule="evenodd" clip-rule="evenodd" d="M298.819 207.814C299.319 207.803 299.78 208.069 300.005 208.497L309.513 226.563C309.836 227.177 309.579 227.927 308.939 228.237C308.299 228.547 307.519 228.301 307.195 227.686L298.91 211.943L291.497 227.639C291.201 228.266 290.431 228.544 289.778 228.259C289.125 227.975 288.836 227.237 289.132 226.61L297.664 208.545C297.871 208.108 298.32 207.824 298.819 207.814ZM138.976 207.813C139.464 207.822 139.906 208.093 140.12 208.515L145.239 218.632C145.552 219.251 145.283 219.996 144.638 220.297C143.993 220.597 143.217 220.339 142.903 219.72L138.899 211.807L134.491 219.761C134.154 220.368 133.368 220.599 132.735 220.276C132.102 219.953 131.862 219.198 132.199 218.591L137.806 208.474C138.035 208.06 138.487 207.805 138.976 207.813ZM457.064 207.813C457.552 207.805 458.004 208.06 458.234 208.474L463.841 218.591C464.178 219.198 463.937 219.953 463.304 220.276C462.671 220.599 461.885 220.368 461.549 219.761L457.14 211.807L453.136 219.72C452.823 220.339 452.046 220.597 451.401 220.297C450.756 219.996 450.487 219.251 450.801 218.632L455.92 208.515C456.133 208.093 456.575 207.822 457.064 207.813ZM244.777 207.813C245.257 207.822 245.693 208.084 245.91 208.494L251.273 218.611C251.599 219.224 251.344 219.974 250.705 220.286C250.066 220.598 249.285 220.354 248.959 219.741L244.703 211.713L240.038 219.78C239.69 220.382 238.899 220.599 238.272 220.265C237.646 219.931 237.419 219.173 237.767 218.571L243.618 208.455C243.851 208.052 244.297 207.805 244.777 207.813ZM351.263 207.813C351.743 207.805 352.188 208.052 352.421 208.455L358.272 218.571C358.62 219.173 358.394 219.931 357.767 220.265C357.14 220.599 356.35 220.382 356.002 219.78L351.336 211.713L347.08 219.741C346.755 220.354 345.973 220.598 345.334 220.286C344.695 219.974 344.441 219.224 344.766 218.611L350.129 208.494C350.347 208.084 350.783 207.822 351.263 207.813ZM58.1807 209.059C58.1807 208.371 58.7619 207.813 59.4788 207.813H112.38C113.097 207.813 113.678 208.371 113.678 209.059V214.358C113.678 215.046 113.097 215.604 112.38 215.604C111.663 215.604 111.081 215.046 111.081 214.358V210.305H59.4788C58.7619 210.305 58.1807 209.747 58.1807 209.059ZM165.28 207.813C165.997 207.813 166.578 208.371 166.578 209.059V214.358C166.578 215.046 165.997 215.604 165.28 215.604C164.563 215.604 163.982 215.046 163.982 214.358V209.059C163.982 208.371 164.563 207.813 165.28 207.813ZM191.609 207.813C192.097 207.813 192.544 208.076 192.766 208.494L198.129 218.611C198.454 219.224 198.2 219.974 197.561 220.286C196.922 220.598 196.14 220.354 195.815 219.741L191.609 211.807L187.403 219.741C187.077 220.354 186.296 220.598 185.657 220.286C185.018 219.974 184.763 219.224 185.088 218.611L190.452 208.494C190.673 208.076 191.12 207.813 191.609 207.813ZM217.937 207.813C218.654 207.813 219.235 208.371 219.235 209.059V214.358C219.235 215.046 218.654 215.604 217.937 215.604C217.22 215.604 216.639 215.046 216.639 214.358V209.059C216.639 208.371 217.22 207.813 217.937 207.813ZM271.082 207.813C271.799 207.813 272.38 208.371 272.38 209.059V214.358C272.38 215.046 271.799 215.604 271.082 215.604C270.365 215.604 269.783 215.046 269.783 214.358V209.059C269.783 208.371 270.365 207.813 271.082 207.813ZM324.958 207.813C325.675 207.813 326.256 208.371 326.256 209.059V214.358C326.256 215.046 325.675 215.604 324.958 215.604C324.241 215.604 323.66 215.046 323.66 214.358V209.059C323.66 208.371 324.241 207.813 324.958 207.813ZM378.102 207.813C378.819 207.813 379.401 208.371 379.401 209.059V214.358C379.401 215.046 378.819 215.604 378.102 215.604C377.385 215.604 376.804 215.046 376.804 214.358V209.059C376.804 208.371 377.385 207.813 378.102 207.813ZM404.431 207.813C404.919 207.813 405.366 208.076 405.588 208.494L410.951 218.611C411.276 219.224 411.022 219.974 410.383 220.286C409.744 220.598 408.962 220.354 408.637 219.741L404.431 211.807L400.225 219.741C399.9 220.354 399.118 220.598 398.479 220.286C397.84 219.974 397.585 219.224 397.911 218.611L403.274 208.494C403.495 208.076 403.942 207.813 404.431 207.813ZM430.759 207.813C431.476 207.813 432.057 208.371 432.057 209.059V214.358C432.057 215.046 431.476 215.604 430.759 215.604C430.042 215.604 429.461 215.046 429.461 214.358V209.059C429.461 208.371 430.042 207.813 430.759 207.813ZM482.362 209.059C482.362 208.371 482.943 207.813 483.66 207.813H536.561C537.278 207.813 537.859 208.371 537.859 209.059C537.859 209.747 537.278 210.305 536.561 210.305H484.958V214.358C484.958 215.046 484.377 215.604 483.66 215.604C482.943 215.604 482.362 215.046 482.362 214.358V209.059Z" fill="white"/>
<path d="M224.67 21.9053L222.704 14.6571C222.636 14.4208 222.41 14.2482 222.162 14.2482C221.914 14.2482 221.677 14.4097 221.62 14.6571L220.558 18.5824L217.531 7.40895C217.463 7.17265 217.237 7 216.989 7C216.741 7 216.504 7.16148 216.447 7.40895L213.465 18.3782L212.347 14.6359C212.279 14.3996 212.064 14.2703 211.793 14.2487C211.533 14.2487 211.319 14.4206 211.251 14.6576L209.274 21.9051C209.263 21.9268 209.251 22.0233 209.251 22.0449V25.4543C209.251 25.7556 209.499 25.9919 209.816 25.9919H211.047V41.8654H194.803V38.3699C195.345 37.9288 195.696 37.2731 195.696 36.5418C195.696 35.208 194.555 34.1111 193.142 34.1111C191.741 34.1111 190.589 35.1974 190.589 36.5418C190.589 37.2836 190.951 37.94 191.493 38.381V41.8765H171.952V38.381C172.494 37.9399 172.844 37.2842 172.844 36.5529C172.844 35.2191 171.703 34.1222 170.291 34.1222C168.89 34.1222 167.738 35.2085 167.738 36.5529C167.738 37.2947 168.099 37.9511 168.642 38.3921V41.8763L151.845 41.8757C151.529 41.8757 151.281 42.112 151.281 42.4133L151.27 57.7701C151.27 58.0714 151.518 58.3077 151.834 58.3077H151.857H222.886L222.897 25.9915L224.128 25.9922C224.444 25.9922 224.693 25.7559 224.693 25.4546V22.0452C224.693 22.0235 224.682 21.9375 224.67 21.9053L224.67 21.9053ZM152.409 55.018C152.455 53.717 153.358 52.5552 154.747 51.7701C156.611 50.8885 158.543 50.7697 158.893 50.7592C162.451 50.7592 165.343 52.7166 165.343 55.1146V57.2117L152.409 57.2124V55.018ZM194.374 42.9413V47.4365L193.482 46.8234C193.289 46.6836 193.018 46.6836 192.815 46.8234L191.923 47.4365V42.9518H194.374L194.374 42.9413ZM175.249 51.1361C175.464 51.1039 175.644 50.9858 175.713 50.781C175.792 50.5551 175.702 50.3189 175.509 50.179L172.618 48.179C172.64 48.1147 172.663 48.0608 172.663 47.9854V45.942H190.805V48.1895L187.936 50.1686C187.732 50.3084 187.653 50.5447 187.732 50.7705C187.8 50.9746 187.992 51.0935 188.207 51.1256V52.298C186.874 50.7384 184.479 49.6848 181.734 49.6848C178.955 49.6848 176.582 50.6956 175.25 52.2336L175.249 51.1361ZM196.282 50.0819H190.012L193.141 47.9204L196.282 50.0819ZM189.324 57.223V51.1577H196.96V57.223H189.324ZM198.089 51.136C198.304 51.1144 198.496 50.9857 198.563 50.7809C198.643 50.5551 198.552 50.3188 198.36 50.179L195.502 48.1999V45.9413H211.034V52.2756C209.69 50.7272 207.295 49.6947 204.561 49.6947C201.783 49.6947 199.41 50.7056 198.088 52.254L198.089 51.136ZM190.792 44.8875H172.651V42.9413H190.792V44.8875ZM171.521 42.9413V44.8771H169.081V42.9413H171.521ZM171.521 45.9633V47.437L170.629 46.8134C170.437 46.6736 170.166 46.6736 169.962 46.8134L169.081 47.4265V45.9528L171.521 45.9522L171.521 45.9633ZM170.301 47.9202L173.43 50.0817H167.16L170.301 47.9202ZM166.483 51.1577H174.119V57.223H166.494V51.1577H166.483ZM175.248 55.083C175.294 52.7061 178.186 50.7815 181.732 50.7815C185.291 50.7815 188.193 52.7388 188.193 55.1368V57.2229H175.248L175.248 55.083ZM198.101 55.1368C198.101 52.7389 201.004 50.7815 204.574 50.7815C208.143 50.7815 211.047 52.7389 211.047 55.1368V57.2229H198.101V55.1368ZM221.765 35.2843H219.438V30.929C219.438 30.6277 219.19 30.3914 218.874 30.3914C218.557 30.3914 218.309 30.6277 218.309 30.929V35.2843H215.621V30.929C215.621 30.6277 215.372 30.3914 215.056 30.3914C214.74 30.3914 214.491 30.6277 214.491 30.929V35.2843H212.164L212.164 25.9927H221.765L221.765 35.2843ZM218.885 42.5646C218.568 42.5646 218.32 42.8009 218.32 43.1022V47.4575H215.632V43.1022C215.632 42.8009 215.384 42.5646 215.067 42.5646C214.751 42.5646 214.502 42.8009 214.502 43.1022V47.4575H212.175L212.175 36.3595H221.776V47.4582H219.449V43.1028C219.449 42.8015 219.19 42.5646 218.885 42.5646L218.885 42.5646ZM212.175 57.2229V48.5333H221.776V57.2229H212.175ZM211.045 44.8876H195.502V42.9413H211.045V44.8876ZM193.142 35.187C193.921 35.187 194.565 35.7889 194.565 36.5418C194.565 37.2948 193.944 37.8967 193.142 37.8967C192.363 37.8967 191.719 37.2948 191.719 36.5418C191.73 35.7896 192.362 35.187 193.142 35.187ZM192.633 38.9083C192.803 38.9405 192.972 38.9621 193.153 38.9621C193.334 38.9621 193.503 38.9405 193.673 38.9083V41.8655H192.634L192.633 38.9083ZM170.301 35.187C171.081 35.187 171.725 35.7889 171.725 36.5418C171.725 37.2948 171.103 37.8967 170.301 37.8967C169.522 37.8967 168.878 37.2948 168.878 36.5418C168.89 35.7896 169.522 35.187 170.301 35.187ZM169.793 38.9083C169.963 38.9405 170.133 38.9621 170.301 38.9621C170.482 38.9621 170.652 38.9405 170.821 38.9083V41.8655L169.793 41.8662V38.9083ZM167.952 42.9413V44.8876H152.409V42.9413H167.952ZM152.409 45.9634H167.952V48.0068C167.952 48.0711 167.963 48.1361 167.986 48.1899L165.082 50.2012C164.879 50.341 164.799 50.5774 164.879 50.8032C164.946 51.0073 165.139 51.1366 165.353 51.1583V52.3195C164.02 50.7598 161.625 49.7168 158.892 49.7168H158.881C158.474 49.7168 157.616 49.7923 157.571 49.8028C155.368 50.0608 153.527 50.9752 152.409 52.2657L152.409 45.9634ZM222.161 16.9475L223.393 21.5077H221.337L221.133 20.7331L222.161 16.9475ZM216.976 9.69935L220.173 21.4971H213.768L216.976 9.69935ZM211.814 16.8511L212.899 20.4536L212.605 21.5183H210.549L211.814 16.8511ZM223.562 24.9164H210.38V22.5828H223.562V24.9164Z" fill="white"/>
<path d="M525.194 93.5772C525.194 94.0515 525.963 94.4362 526.912 94.4362C527.861 94.4362 528.63 94.0515 528.63 93.5772C528.63 93.1027 527.861 92.7183 526.912 92.7183C525.963 92.7183 525.194 93.1027 525.194 93.5772Z" fill="white"/>
<path d="M518.325 93.5772C518.325 94.0515 518.71 94.4362 519.184 94.4362C519.658 94.4362 520.043 94.0515 520.043 93.5772C520.043 93.1027 519.658 92.7183 519.184 92.7183C518.71 92.7183 518.325 93.1027 518.325 93.5772Z" fill="white"/>
<path d="M533.783 93.5772C533.783 94.0515 534.168 94.4362 534.642 94.4362C535.116 94.4362 535.501 94.0515 535.501 93.5772C535.501 93.1027 535.116 92.7183 534.642 92.7183C534.168 92.7183 533.783 93.1027 533.783 93.5772Z" fill="white"/>
<path d="M540.657 91.001H538.939V92.7189H540.657V91.001Z" fill="white"/>
<path d="M514.885 91.001H513.167V92.7189H514.885V91.001Z" fill="white"/>
<path d="M508.645 84.4582H510.534V81.5342C510.534 81.3789 510.601 81.2301 510.719 81.1205C510.837 81.0109 510.997 80.9492 511.164 80.9492H511.794V79.7797H509.904V78.61H512.424C512.772 78.61 513.054 78.8718 513.054 79.1947V80.9491H515.657L513.79 78.3497C513.683 78.1993 513.658 78.0116 513.721 77.8415L514.976 74.3326C515.061 74.0933 515.302 73.9315 515.573 73.9315H518.723V72.1771C518.723 72.0218 518.789 71.873 518.907 71.7634C519.026 71.6538 519.186 71.592 519.353 71.592H526.912C527.259 71.592 527.541 71.8538 527.541 72.1771V73.9315H528.801V70.4226H530.061V73.9315H530.569L543.666 68.7171C543.828 68.6511 544.013 68.6517 544.175 68.7184C544.337 68.7851 544.461 68.9119 544.517 69.0678L545.777 72.5768C545.879 72.8642 545.729 73.1766 545.43 73.2973L538.084 76.2799L536.576 80.949H540.139C540.326 80.9494 540.503 81.0262 540.623 81.1596L543.583 84.458H545.178C545.526 84.458 545.808 84.7198 545.808 85.043V87.3822C545.808 87.5372 545.742 87.686 545.624 87.7956C545.505 87.9055 545.345 87.967 545.178 87.967H544.548V91.4759C544.548 91.6759 544.438 91.8621 544.257 91.9695L537.328 96.0632C537.227 96.1231 537.109 96.1546 536.989 96.1546H515.573C515.419 96.1543 515.27 96.1021 515.154 96.007L509.485 91.3283V91.3287C509.351 91.2175 509.274 91.0582 509.274 90.8912V87.967H508.644C508.477 87.967 508.317 87.9055 508.199 87.7956C508.081 87.686 508.014 87.5372 508.014 87.3822V85.043C508.014 84.8877 508.081 84.7389 508.199 84.6293C508.317 84.5197 508.477 84.458 508.644 84.458L508.645 84.4582ZM517.171 80.9492H529.094L530.773 78.61H515.491L517.171 80.9492ZM518.093 82.7037C518.093 82.9405 518.247 83.1535 518.482 83.244C518.717 83.3347 518.988 83.2847 519.169 83.1174C519.349 82.95 519.403 82.6984 519.305 82.4799C519.208 82.2616 518.978 82.119 518.723 82.119C518.556 82.119 518.396 82.1807 518.278 82.2903C518.16 82.3999 518.093 82.5487 518.093 82.7037ZM535.262 80.9492L536.571 76.8963L532.366 78.5011L530.608 80.9493L535.262 80.9492ZM531.951 82.7037C531.951 82.9405 532.105 83.1535 532.34 83.244C532.575 83.3347 532.846 83.2847 533.026 83.1174C533.207 82.95 533.26 82.6984 533.163 82.4799C533.065 82.2616 532.836 82.119 532.581 82.119C532.414 82.119 532.254 82.1807 532.136 82.2903C532.018 82.3999 531.951 82.5487 531.951 82.7037ZM525.022 77.4402L525.022 75.101H523.763V77.4402H525.022ZM522.503 77.4402V75.101H521.243V77.4402H522.503ZM516.028 75.101L515.188 77.4402H519.983V75.101H516.028ZM526.282 72.7618H519.983V73.9315H526.282V72.7618ZM530.237 75.101H526.282V77.4402H531.077L530.237 75.101ZM533.454 74.1195L531.477 74.854L532.337 77.2519L534.315 76.5174L533.454 74.1195ZM544.399 72.4401L543.541 70.0453L534.623 73.6713L535.478 76.063L544.399 72.4401ZM539.845 82.1185H534.355C534.429 82.3059 534.468 82.5038 534.471 82.7032C534.471 83.3303 534.11 83.9095 533.526 84.2228C532.941 84.5362 532.22 84.5362 531.636 84.2228C531.051 83.9095 530.691 83.3303 530.691 82.7032C530.693 82.5038 530.732 82.3059 530.807 82.1185H520.497C520.571 82.3059 520.61 82.5038 520.612 82.7032C520.612 83.3303 520.252 83.9095 519.668 84.2228C519.083 84.5362 518.363 84.5362 517.778 84.2228C517.194 83.9095 516.833 83.3303 516.833 82.7032C516.835 82.5038 516.875 82.3059 516.949 82.1185H511.794V84.4578H524.392V83.2883H525.651V84.4581L526.911 84.4578V83.2883H528.171V84.4581L541.944 84.4578L539.845 82.1185ZM542.029 90.8912C542.029 90.426 541.83 89.9796 541.476 89.6505C541.121 89.3217 540.641 89.1368 540.139 89.1368C539.638 89.1368 539.158 89.3217 538.803 89.6505C538.449 89.9796 538.25 90.426 538.25 90.8912C538.25 91.3565 538.449 91.8029 538.803 92.1317C539.158 92.4608 539.638 92.6457 540.139 92.6457C540.641 92.6457 541.121 92.4608 541.476 92.1317C541.83 91.8029 542.029 91.3565 542.029 90.8912ZM539.09 93.6358C538.769 93.5293 538.469 93.3746 538.201 93.1786C538.127 93.6315 537.957 94.0668 537.702 94.4586L539.09 93.6358ZM534.471 94.9849C535.139 94.9849 535.779 94.7386 536.252 94.2999C536.724 93.8612 536.99 93.266 536.99 92.6457C536.99 92.0252 536.724 91.4302 536.252 90.9915C535.779 90.5528 535.139 90.3065 534.471 90.3065C533.802 90.3065 533.161 90.5528 532.689 90.9915C532.216 91.4302 531.951 92.0251 531.951 92.6457C531.951 93.2659 532.216 93.8612 532.689 94.2999C533.161 94.7386 533.802 94.9849 534.471 94.9849ZM526.912 94.9849C527.58 94.9849 528.221 94.7386 528.693 94.2999C529.166 93.8612 529.431 93.266 529.431 92.6457C529.431 92.0252 529.166 91.4302 528.693 90.9915C528.221 90.5528 527.58 90.3065 526.912 90.3065C526.243 90.3065 525.603 90.5528 525.13 90.9915C524.658 91.4302 524.392 92.0251 524.392 92.6457C524.392 93.2659 524.658 93.8612 525.13 94.2999C525.603 94.7386 526.243 94.9849 526.912 94.9849ZM519.353 94.9849C520.021 94.9849 520.662 94.7386 521.135 94.2999C521.607 93.8612 521.873 93.266 521.873 92.6457C521.873 92.0252 521.607 91.4302 521.135 90.9915C520.662 90.5528 520.021 90.3065 519.353 90.3065C518.685 90.3065 518.044 90.5528 517.571 90.9915C517.099 91.4302 516.833 92.0251 516.833 92.6457C516.833 93.2659 517.099 93.8612 517.571 94.2999C518.044 94.7386 518.685 94.9849 519.353 94.9849ZM515.813 94.9849H516.544C516.054 94.4789 515.733 93.851 515.622 93.1786C515.243 93.462 514.798 93.6593 514.322 93.7547L515.813 94.9849ZM512.329 92.1095L512.447 92.2064C512.788 92.488 513.228 92.6442 513.684 92.6457C514.273 92.6482 514.83 92.3969 515.191 91.9653C515.553 91.5334 515.678 90.9706 515.53 90.4411C515.383 89.9117 514.979 89.476 514.437 89.2615C513.896 89.0472 513.277 89.0784 512.764 89.3458C512.25 89.6134 511.899 90.0873 511.814 90.6285C511.729 91.1694 511.919 91.7168 512.329 92.1094L512.329 92.1095ZM510.534 90.6285L510.561 90.6501C510.638 89.7286 511.182 88.8957 512.027 88.4066C512.872 87.9176 513.917 87.8305 514.842 88.1723C515.767 88.5141 516.462 89.2436 516.714 90.1379C517.657 89.2763 519.016 88.9354 520.297 89.2396C521.578 89.5434 522.595 90.4476 522.977 91.6232C523.358 92.7988 523.049 94.0742 522.162 94.9849H524.102C523.447 94.3091 523.1 93.4234 523.135 92.5145C523.169 91.6059 523.582 90.7448 524.287 90.1135C524.991 89.4819 525.932 89.1287 526.912 89.1287C527.891 89.1287 528.832 89.4819 529.537 90.1135C530.241 90.7449 530.654 91.6059 530.689 92.5145C530.723 93.4234 530.376 94.3091 529.721 94.9849H531.661C530.774 94.0742 530.465 92.7988 530.847 91.6232C531.229 90.4476 532.245 89.5434 533.526 89.2396C534.808 88.9355 536.167 89.2763 537.109 90.1379C537.372 89.2167 538.104 88.4727 539.069 88.1457C540.033 87.8188 541.109 87.95 541.95 88.4971C542.791 89.0441 543.291 89.9379 543.289 90.8912C543.284 90.9857 543.274 91.0796 543.258 91.1731L543.289 91.1549V87.967H510.534L510.534 90.6285ZM509.275 86.7975H544.548V85.6278H509.275V86.7975Z" fill="white"/>
<path d="M490.696 98.3018C488.811 94.8095 487.141 91.3866 485.626 88.0108H486.246C486.58 88.0108 486.843 87.755 486.843 87.4289C486.843 87.1027 486.58 86.8469 486.246 86.8469H485.113C483.395 82.9118 481.915 79.0123 480.651 75.1127H481.176C481.51 75.1127 481.772 74.8569 481.772 74.5307V70.3981C481.772 70.3746 481.772 70.1536 481.629 70.0137L478.061 65.9741C475.758 56.1719 474.852 46.5559 475.293 36.6385H477.393C477.727 36.6385 477.989 36.3827 477.989 36.0566V31.9239C477.989 31.6909 477.858 31.5516 477.846 31.5395L474.207 27.3948C474.088 27.2669 473.933 27.1966 473.753 27.1966L472.895 27.1973V24.0658C472.895 23.7397 472.633 23.4839 472.298 23.4839H469.674C469.34 23.4839 469.077 23.7397 469.077 24.0658V27.1973H468.218C468.039 27.1973 467.884 27.2669 467.764 27.3955L464.137 31.5282C464.125 31.5396 463.993 31.703 463.993 31.9126V36.0453C463.993 36.3714 464.256 36.6272 464.59 36.6272H466.689C467.119 46.5574 466.224 56.1619 463.921 65.9628L460.366 70.0024C460.354 70.0137 460.235 70.1885 460.223 70.3868V74.5194C460.223 74.8456 460.485 75.1014 460.819 75.1014H461.344C460.079 78.9896 458.6 82.889 456.87 86.8356H455.748C455.414 86.8356 455.152 87.0914 455.152 87.4176C455.152 87.7437 455.414 87.9995 455.748 87.9995H456.357C454.841 91.3755 453.159 94.7982 451.274 98.2905C451.119 98.5698 451.239 98.9307 451.525 99.0707C451.609 99.1176 451.704 99.1404 451.8 99.1404C452.014 99.1404 452.217 99.0238 452.325 98.8263C453.911 95.8924 455.343 93.0054 456.668 90.1531V98.5698C456.668 98.896 456.93 99.1517 457.264 99.1517H484.707C485.042 99.1517 485.304 98.896 485.304 98.5698V90.188C486.628 93.0403 488.06 95.9158 489.635 98.8378C489.742 99.036 489.945 99.1518 490.16 99.1518C490.255 99.1518 490.35 99.1284 490.434 99.0822C490.733 98.9308 490.84 98.5812 490.697 98.302L490.696 98.3018ZM461.417 70.9672H480.566V73.9358H461.417V70.9672ZM467.443 86.8346L470.998 80.6883L474.553 86.8346H467.443ZM475.138 75.0997H479.004L477.918 78.4059L475.138 75.0997ZM477.477 79.7211L475.424 85.9726L471.69 79.5001L473.981 75.5422L477.477 79.7211ZM470.998 78.3241L469.137 75.111H472.859L470.998 78.3241ZM468.015 75.5423L470.306 79.5001L466.572 85.9726L464.519 79.7212L468.015 75.5423ZM464.077 78.4058L462.992 75.0995H466.857L464.077 78.4058ZM465.593 86.8345H458.529L463.6 80.7926L465.593 86.8345ZM478.372 80.804L483.442 86.8459H476.379L478.372 80.804ZM478.813 79.4767L479.815 76.4149C480.662 78.941 481.593 81.4669 482.619 84.0052L478.813 79.4767ZM463.171 79.4767L459.353 84.0172C460.39 81.4676 461.321 78.9417 462.168 76.4156L463.171 79.4767ZM466.703 57.963L470.079 60.7917L465.425 64.6799C465.927 62.4331 466.357 60.1864 466.703 57.963H466.703ZM476.557 64.6799L471.904 60.7917L475.28 57.963C475.639 60.1864 476.069 62.4331 476.557 64.6799H476.557ZM470.998 60.0116L467.264 56.8916L470.998 54.4351L474.732 56.8916L470.998 60.0116ZM472.06 53.7252L474.529 52.0951C474.649 53.2711 474.78 54.4464 474.947 55.6224L472.06 53.7252ZM470.998 53.0267L467.836 50.9426L470.998 46.9727L474.16 50.9426L470.998 53.0267ZM471.75 46.0192L474.004 43.1904C474.04 45.2041 474.135 47.1952 474.279 49.1974L471.75 46.0192ZM470.998 45.0763L468.254 41.6309L470.998 39.5703L473.742 41.6309L470.998 45.0763ZM471.976 38.8361L474.076 37.253C474.04 38.289 474.004 39.325 473.992 40.3495L471.976 38.8361ZM470.998 38.1028L469.041 36.6362H472.955L470.998 38.1028ZM470.019 38.8361L468.003 40.3496C467.991 39.325 467.967 38.289 467.919 37.253L470.019 38.8361ZM467.979 43.1898L470.234 46.0186L467.705 49.197C467.848 47.1946 467.956 45.2043 467.98 43.1899L467.979 43.1898ZM467.454 52.096L469.924 53.726L467.036 55.6232C467.204 54.4473 467.335 53.2712 467.454 52.0959L467.454 52.096ZM470.998 61.5486L475.914 65.6578H466.095L470.998 61.5486ZM470.282 24.6458H471.714V27.1954H470.282V24.6458ZM468.505 28.3592H473.48L476.093 31.3278H465.904L468.505 28.3592ZM465.199 32.4918H476.784V35.4605H465.199V32.4918ZM464.746 66.8334H477.25L479.875 69.8021H462.121L464.746 66.8334ZM468.409 97.9862V94.3773C468.409 92.9803 469.566 91.8512 470.998 91.8512C472.43 91.8512 473.587 92.9802 473.587 94.3773V97.9862H468.409ZM484.11 97.9862H481.796V94.319C481.796 93.9929 481.534 93.7371 481.2 93.7371C480.865 93.7371 480.603 93.9929 480.603 94.319V97.9862H478.289V94.319C478.289 93.9929 478.027 93.7371 477.692 93.7371C477.358 93.7371 477.096 93.9929 477.096 94.319V97.9862H474.781V94.3773C474.781 92.3401 473.088 90.6866 470.999 90.6866C468.911 90.6866 467.216 92.3394 467.216 94.3773V97.9862H464.77V94.319C464.77 93.9929 464.508 93.7371 464.174 93.7371C463.839 93.7371 463.577 93.9929 463.577 94.319V97.9862H461.322V94.319C461.322 93.9929 461.06 93.7371 460.725 93.7371C460.391 93.7371 460.129 93.9929 460.129 94.319V97.9862H457.874V88.0092H484.111L484.11 97.9862Z" fill="white"/>
<path d="M477.539 92.2727H479.907C480.207 92.2727 480.442 91.8947 480.442 91.4128C480.442 90.9309 480.207 90.553 479.907 90.553H477.539C477.238 90.553 477.003 90.9309 477.003 91.4128C477.002 91.8937 477.238 92.2727 477.539 92.2727Z" fill="white"/>
<path d="M464.161 90.553H460.609C460.159 90.553 459.806 90.9309 459.806 91.4128C459.806 91.8948 460.159 92.2727 460.609 92.2727H464.161C464.612 92.2727 464.965 91.8948 464.965 91.4128C464.965 90.9309 464.611 90.553 464.161 90.553Z" fill="white"/>
<path d="M393.256 55.2868C393.256 55.7639 394.037 56.1505 395.002 56.1505C395.966 56.1505 396.747 55.7639 396.747 55.2868C396.747 54.81 395.966 54.4233 395.002 54.4233C394.037 54.4233 393.256 54.8099 393.256 55.2868Z" fill="white"/>
<path d="M386.276 55.2868C386.276 55.7639 386.667 56.1505 387.149 56.1505C387.631 56.1505 388.021 55.7639 388.021 55.2868C388.021 54.81 387.631 54.4233 387.149 54.4233C386.667 54.4233 386.276 54.8099 386.276 55.2868Z" fill="white"/>
<path d="M400.238 55.2868C400.238 55.7639 401.02 56.1505 401.984 56.1505C402.948 56.1505 403.729 55.7639 403.729 55.2868C403.729 54.81 402.948 54.4233 401.984 54.4233C401.02 54.4233 400.238 54.8099 400.238 55.2868Z" fill="white"/>
<path d="M381.035 52.6958H379.29V54.423H381.035V52.6958Z" fill="white"/>
<path d="M376.441 45.5411H377.721V42.4566C377.721 42.2932 377.789 42.1362 377.909 42.0206C378.029 41.9047 378.192 41.8399 378.361 41.8399H379.002V37.1601L376.629 34.8734H376.629C376.509 34.7578 376.441 34.6009 376.441 34.4374V31.97H377.721V34.182L379.322 35.7243L380.017 35.0541L379.189 34.2566C379.069 34.141 379.002 33.984 379.002 33.8206V32.5867H380.281V33.5649L380.921 34.1816L382.389 32.767V32.7674C382.509 32.6518 382.672 32.5866 382.842 32.5866H391.162C391.516 32.5866 391.802 32.8628 391.802 33.2034V34.1816L393.347 35.6711H394.362V33.8205H395.643V35.8704L398.326 36.9046H409.458L410.551 35.8518C410.671 35.7359 410.833 35.6711 411.003 35.6711H413.564C413.917 35.6711 414.203 35.9472 414.203 36.2878V41.2229V41.2225C414.203 41.3863 414.136 41.5433 414.016 41.6589C413.896 41.7745 413.733 41.8396 413.564 41.8396H411.003C410.833 41.8396 410.671 41.7745 410.551 41.6589L409.458 40.6058H398.326L395.643 41.6403V41.8396H405.244C405.519 41.8396 405.763 42.0096 405.85 42.2613L406.984 45.5408H412.284C412.527 45.5405 412.748 45.6727 412.857 45.8818L414.131 48.3492V48.3495C414.178 48.4342 414.203 48.5289 414.204 48.625V53.5601C414.204 53.7857 414.076 53.9935 413.871 54.1016L406.83 57.8028H406.83C406.736 57.8523 406.631 57.878 406.524 57.878H383.482C383.375 57.878 383.269 57.8523 383.175 57.8028L376.135 54.1016H376.135C375.929 53.9935 375.801 53.7857 375.801 53.5601V46.1576C375.801 45.9941 375.869 45.8372 375.989 45.7216C376.109 45.6056 376.272 45.5408 376.441 45.5408L376.441 45.5411ZM410.363 39.734L411.268 40.606H412.924V36.9049H411.268L410.363 37.7773V39.734ZM402.683 39.3722H409.083V38.1387H402.683V39.3722ZM398.843 39.3722H401.403V38.1387H398.843V39.3722ZM380.282 36.9048V39.3722H381.561V36.9048H380.282ZM390.709 34.8735C390.59 34.7579 390.522 34.6009 390.522 34.4374V33.8207H383.107L381.187 35.6713H391.537L390.709 34.8735ZM382.841 36.9048V39.3722H384.122V36.9048H382.841ZM394.363 36.9048H385.403V39.9893C385.403 40.1527 385.335 40.3097 385.215 40.4253C385.095 40.5412 384.932 40.606 384.762 40.606H380.282V41.8399H394.363L394.363 36.9048ZM397.563 39.5714V37.9393L395.643 37.1992V40.312L397.563 39.5714ZM404.782 43.0734H379.002V45.5408L405.635 45.5411L404.782 43.0734ZM411.644 52.3268C411.644 51.836 411.442 51.3655 411.082 51.0184C410.721 50.6712 410.233 50.4762 409.724 50.4762C409.215 50.4762 408.726 50.6712 408.366 51.0184C408.006 51.3655 407.804 51.8361 407.804 52.3268C407.804 52.8175 408.006 53.2884 408.366 53.6355C408.726 53.9823 409.215 54.1774 409.724 54.1774C410.233 54.1774 410.722 53.9823 411.082 53.6355C411.442 53.2884 411.644 52.8175 411.644 52.3268ZM405.538 56.6448L406.36 56.6451L408.92 55.3002H408.921C408.073 55.0983 407.345 54.5743 406.905 53.8475C406.464 53.1203 406.347 52.2525 406.581 51.4414C406.816 50.6305 407.381 49.9451 408.147 49.5419C408.914 49.1388 409.818 49.0522 410.652 49.3016C411.486 49.551 412.18 50.1154 412.576 50.866C412.972 51.6166 413.035 52.4897 412.752 53.2861L412.924 53.1943V49.2427H404.603V50.9774V50.9771C405.606 51.5323 406.295 52.4949 406.476 53.5959C406.658 54.6965 406.313 55.8177 405.538 56.6452L405.538 56.6448ZM402.683 56.6451C403.362 56.6451 404.013 56.3849 404.493 55.9222C404.974 55.4594 405.244 54.8319 405.244 54.1774C405.244 53.5232 404.974 52.8953 404.493 52.4326C404.013 51.9698 403.362 51.71 402.683 51.71C402.004 51.71 401.353 51.9698 400.873 52.4326C400.393 52.8953 400.123 53.5231 400.123 54.1774C400.123 54.8319 400.393 55.4594 400.873 55.9222C401.353 56.3849 402.004 56.6451 402.683 56.6451ZM403.323 50.4762V49.2426H402.043V50.4765L403.323 50.4762ZM397.857 56.6448L399.829 56.6451C399.054 55.8176 398.709 54.6965 398.89 53.5958C399.072 52.4948 399.76 51.5322 400.763 50.977V49.2426H396.923V50.9774V50.977C397.926 51.5322 398.614 52.4948 398.796 53.5958C398.977 54.6965 398.632 55.8176 397.857 56.6451L397.857 56.6448ZM395.003 56.6451C395.682 56.6451 396.333 56.3849 396.813 55.9222C397.293 55.4594 397.563 54.8319 397.563 54.1774C397.563 53.5231 397.293 52.8953 396.813 52.4326C396.333 51.9698 395.682 51.71 395.003 51.71C394.324 51.71 393.673 51.9698 393.193 52.4326C392.712 52.8953 392.442 53.5231 392.442 54.1774C392.442 54.8319 392.712 55.4594 393.193 55.9222C393.673 56.3849 394.324 56.6451 395.003 56.6451ZM395.643 50.4762V49.2426H394.363V50.4765L395.643 50.4762ZM390.177 56.6448L392.148 56.6451C391.373 55.8176 391.028 54.6965 391.21 53.5958C391.391 52.4948 392.08 51.5322 393.083 50.977V49.2426H389.242V50.9773V50.977C390.245 51.5322 390.934 52.4948 391.115 53.5958C391.297 54.6965 390.952 55.8176 390.177 56.6451L390.177 56.6448ZM387.322 56.6451C388.001 56.6451 388.653 56.3849 389.133 55.9222C389.613 55.4594 389.882 54.8319 389.882 54.1774C389.882 53.5231 389.613 52.8953 389.133 52.4325C388.653 51.9698 388.001 51.71 387.322 51.71C386.643 51.71 385.992 51.9698 385.512 52.4325C385.032 52.8953 384.762 53.5231 384.762 54.1774C384.762 54.8319 385.032 55.4594 385.512 55.9222C385.992 56.3849 386.643 56.6451 387.322 56.6451ZM387.962 50.4762V49.2426H386.682V50.4765L387.962 50.4762ZM380.282 54.1773C380.791 54.1773 381.279 53.9823 381.64 53.6355C381.999 53.2883 382.202 52.8175 382.202 52.3268C382.202 51.836 381.999 51.3655 381.64 51.0184C381.279 50.6712 380.791 50.4762 380.282 50.4762C379.773 50.4762 379.284 50.6712 378.924 51.0184C378.564 51.3655 378.362 51.836 378.362 52.3268C378.362 52.8175 378.564 53.2884 378.924 53.6355C379.284 53.9823 379.773 54.1773 380.282 54.1773ZM377.081 52.3268V53.1939L377.255 53.2857L377.256 53.2861C377.145 52.9774 377.086 52.6533 377.082 52.3267C377.078 51.5533 377.377 50.807 377.918 50.2358C378.459 49.6643 379.203 49.31 380.003 49.2422C380.802 49.1748 381.599 49.3995 382.235 49.8714C382.871 50.3436 383.299 51.0284 383.436 51.7907C383.572 52.5527 383.406 53.3365 382.971 53.9868C382.536 54.6368 381.864 55.1054 381.087 55.3001L383.647 56.645H384.468C383.693 55.8176 383.348 54.6964 383.529 53.5957C383.711 52.4948 384.399 51.5322 385.402 50.977V49.2426H377.082L377.081 52.3268ZM377.081 48.0088H412.528L411.888 46.7749H377.082L377.081 48.0088Z" fill="white"/>
<path d="M386.973 38.8787H392.558C392.944 38.8787 393.257 39.072 393.257 39.3104V40.6059H391.86V39.7421H387.671V40.6059H386.275V39.3104C386.275 39.196 386.348 39.0861 386.479 39.0052C386.61 38.924 386.788 38.8787 386.973 38.8787L386.973 38.8787Z" fill="white"/>
<path d="M71.1977 92.7742C71.1977 91.8629 70.9262 90.9886 70.443 90.3444C69.9595 89.7002 69.3041 89.3381 68.6207 89.3381C67.9373 89.3381 67.2818 89.7002 66.7987 90.3444C66.3152 90.9887 66.0439 91.863 66.0439 92.7742C66.0439 93.6853 66.3152 94.5593 66.7987 95.2035C67.2819 95.8478 67.9373 96.2098 68.6207 96.2098C69.3038 96.2087 69.959 95.8463 70.4419 95.2024C70.9251 94.5581 71.1969 93.685 71.1977 92.7742ZM68.6207 94.8357C68.2107 94.8357 67.8173 94.6184 67.5275 94.2317C67.2375 93.845 67.0745 93.3208 67.0745 92.7742C67.0745 92.2271 67.2375 91.703 67.5275 91.3163C67.8173 90.9296 68.2107 90.7126 68.6207 90.7126C69.0307 90.7126 69.4241 90.9296 69.7141 91.3163C70.0039 91.703 70.1668 92.2271 70.1668 92.7742C70.1668 93.3208 70.0039 93.845 69.7141 94.2317C69.4241 94.6184 69.0307 94.8357 68.6207 94.8357Z" fill="white"/>
<path d="M66.0416 92.7742C66.0416 91.8629 65.6796 90.9886 65.035 90.3444C64.3908 89.7002 63.5169 89.3381 62.6058 89.3381C61.6946 89.3381 60.8207 89.7002 60.1762 90.3444C59.5319 90.9887 59.1699 91.863 59.1699 92.7742C59.1699 93.6853 59.5319 94.5593 60.1762 95.2035C60.8207 95.8478 61.6946 96.2098 62.6058 96.2098C63.5166 96.2087 64.3897 95.8463 65.0339 95.2024C65.6781 94.5581 66.0401 93.685 66.0416 92.7742ZM62.6058 94.8357C62.0591 94.8357 61.5346 94.6184 61.1479 94.2317C60.7616 93.845 60.5443 93.3208 60.5443 92.7742C60.5443 92.2271 60.7616 91.703 61.1479 91.3163C61.5346 90.9296 62.0591 90.7126 62.6058 90.7126C63.1524 90.7126 63.6769 90.9296 64.0632 91.3163C64.4499 91.703 64.6671 92.2271 64.6671 92.7742C64.6671 93.3208 64.4499 93.845 64.0632 94.2317C63.6769 94.6184 63.1524 94.8357 62.6058 94.8357Z" fill="white"/>
<path d="M78.0689 92.7742C78.0689 91.8629 77.7069 90.9886 77.0626 90.3444C76.4184 89.7002 75.5441 89.3381 74.6329 89.3381C73.7217 89.3381 72.8478 89.7002 72.2036 90.3444C71.5593 90.9887 71.1973 91.863 71.1973 92.7742C71.1973 93.6853 71.5593 94.5593 72.2036 95.2035C72.8478 95.8477 73.7217 96.2098 74.6329 96.2098C75.5438 96.2087 76.4173 95.8463 77.0612 95.2024C77.7054 94.5581 78.0678 93.685 78.0689 92.7742ZM74.6329 94.8357C74.0862 94.8357 73.5621 94.6184 73.1754 94.2317C72.7887 93.845 72.5714 93.3208 72.5714 92.7742C72.5714 92.2271 72.7887 91.703 73.1754 91.3163C73.5621 90.9296 74.0863 90.7126 74.6329 90.7126C75.1799 90.7126 75.7041 90.9296 76.0908 91.3163C76.4775 91.703 76.6944 92.2271 76.6944 92.7742C76.6944 93.3208 76.4775 93.845 76.0908 94.2317C75.7041 94.6184 75.1799 94.8357 74.6329 94.8357Z" fill="white"/>
<path d="M83.2202 92.7742C83.2202 91.8629 82.9486 90.9886 82.4654 90.3444C81.9822 89.7002 81.3268 89.3381 80.6434 89.3381C79.96 89.3381 79.3043 89.7002 78.8211 90.3444C78.338 90.9887 78.0664 91.863 78.0664 92.7742C78.0664 93.6853 78.3379 94.5593 78.8211 95.2035C79.3043 95.8477 79.96 96.2098 80.6434 96.2098C81.3266 96.2087 81.9814 95.8463 82.4646 95.2024C82.9475 94.5581 83.2193 93.685 83.2202 92.7742ZM80.6431 94.8357H80.6434C80.2331 94.8357 79.84 94.6184 79.55 94.2317C79.26 93.845 79.0973 93.3208 79.0973 92.7742C79.0973 92.2271 79.26 91.703 79.55 91.3163C79.84 90.9296 80.2332 90.7126 80.6434 90.7126C81.0534 90.7126 81.4465 90.9296 81.7366 91.3163C82.0266 91.703 82.1895 92.2271 82.1895 92.7742C82.1895 93.3208 82.0266 93.845 81.7366 94.2317C81.4465 94.6184 81.0534 94.8357 80.6434 94.8357H80.6431Z" fill="white"/>
<path d="M90.0943 92.7742C90.0943 91.8629 89.7327 90.9886 89.088 90.3444C88.4438 89.7002 87.5699 89.3381 86.6587 89.3381C85.7475 89.3381 84.8735 89.7002 84.2289 90.3444C83.5847 90.9887 83.2227 91.863 83.2227 92.7742C83.2227 93.6853 83.5847 94.5593 84.2289 95.2035C84.8736 95.8478 85.7475 96.2098 86.6587 96.2098C87.5696 96.2087 88.4427 95.8463 89.0869 95.2024C89.7312 94.5581 90.0932 93.685 90.0943 92.7742ZM86.6583 94.8357H86.6587C86.112 94.8357 85.5875 94.6184 85.2008 94.2317C84.8144 93.845 84.5971 93.3208 84.5971 92.7742C84.5971 92.2271 84.8144 91.703 85.2008 91.3163C85.5875 90.9296 86.112 90.7126 86.6587 90.7126C87.2053 90.7126 87.7299 90.9296 88.1162 91.3163C88.5029 91.703 88.7202 92.2271 88.7202 92.7742C88.7202 93.3208 88.5029 93.845 88.1162 94.2317C87.7298 94.6184 87.2053 94.8357 86.6587 94.8357H86.6583Z" fill="white"/>
<path d="M92.8987 73.448C92.3604 73.4371 91.8291 73.5718 91.3578 73.8381C90.749 74.1764 90.0141 74.1764 89.4052 73.8381C88.4392 73.3177 87.2848 73.3177 86.3188 73.8381C86.0222 74.0153 85.683 74.1033 85.3399 74.0921C84.992 74.0921 84.7101 74.3805 84.7101 74.7362V82.4669H82.5797L83.387 80.8222C83.4296 80.7325 83.4512 80.6338 83.4502 80.5342V75.3807C83.4502 75.2096 83.3837 75.0457 83.2656 74.925C83.1476 74.8042 82.9873 74.7362 82.8204 74.7362H81.3197L80.2377 72.5155C80.1303 72.2961 79.9105 72.1581 79.6708 72.1594H70.8519C70.6131 72.1594 70.395 72.2972 70.2883 72.5155L69.2029 74.7362H65.1831C65.0853 74.7362 64.9889 74.7593 64.9014 74.8039L63.7746 75.3807H56.3644C56.0166 75.3807 55.7346 75.6691 55.7346 76.0248V78.6016C55.7346 78.7726 55.8008 78.9362 55.9188 79.0573C56.0372 79.178 56.1975 79.2457 56.3644 79.2457H63.7746L64.9015 79.8221V79.8225C64.9889 79.867 65.0853 79.8901 65.1831 79.8901H67.0728V80.5342H67.0724C67.0724 80.6342 67.0951 80.7328 67.1386 80.8223L67.943 82.4669H65.1831C64.9117 82.4669 64.671 82.6445 64.5852 82.9077L63.469 86.3323H61.4037C61.0555 86.3323 60.7736 86.6206 60.7736 86.9764V88.909H60.1438C58.5683 88.909 57.1129 89.7687 56.3252 91.1637C55.5374 92.559 55.5374 94.2781 56.3252 95.6735C57.1129 97.0684 58.5684 97.9282 60.1438 97.9282H89.1193C90.6944 97.9282 92.1502 97.0684 92.9379 95.6735C93.7253 94.2782 93.7253 92.5591 92.9379 91.1637C92.1502 89.7687 90.6944 88.909 89.1193 88.909H88.4892V86.9764C88.4892 86.8056 88.423 86.6417 88.305 86.521C88.1866 86.4003 88.0266 86.3323 87.8594 86.3323H85.7941L84.9545 83.7555H87.2296V82.4669H85.9697V78.5403C86.2879 78.4777 86.5955 78.3669 86.8818 78.2118C87.4926 77.8724 88.2295 77.8724 88.8403 78.2118C89.8046 78.7318 90.9578 78.7318 91.9224 78.2118C92.218 78.035 92.5562 77.9469 92.8987 77.9574C93.0657 77.9574 93.2259 77.8894 93.344 77.7687C93.462 77.6479 93.5285 77.484 93.5285 77.313V74.0921C93.5285 73.921 93.462 73.7574 93.344 73.6364C93.2259 73.5157 93.0657 73.448 92.8987 73.448L92.8987 73.448ZM63.2933 77.9574H56.9941V76.6689H63.2933V77.9574ZM67.0726 78.6015H65.3316L64.5528 78.2033V76.423L65.3316 76.0248H67.0723L67.0726 78.6015ZM71.2415 73.4477L79.281 73.448L79.9108 74.7366L70.611 74.7363L71.2415 73.4477ZM68.3322 76.0248H82.1897V77.3134L68.3322 77.3131V76.0248ZM74.6311 78.6016V79.8902H73.3715V78.6016H74.6311ZM72.1116 78.6016V79.8902H70.8517V78.6016H72.1116ZM68.3322 78.6016H69.5922V80.5343C69.5922 80.7053 69.6583 80.8689 69.7767 80.99C69.8948 81.1107 70.055 81.1784 70.222 81.1784H75.2612C75.4282 81.1784 75.5884 81.1107 75.7065 80.99C75.8245 80.8689 75.891 80.7053 75.891 80.5343V78.6016H82.1899V80.3823L81.1707 82.4669H69.3512L68.332 80.3823L68.3322 78.6016ZM65.6369 83.7555H83.6254L84.4656 86.3323H64.7968L65.6369 83.7555ZM89.1193 90.1976C90.2446 90.1976 91.2843 90.8114 91.8466 91.8082C92.4092 92.8046 92.4092 94.0327 91.8466 95.0291C91.2843 96.0258 90.2446 96.6397 89.1193 96.6397H60.1438C59.0185 96.6397 57.9787 96.0258 57.4161 95.0291C56.8535 94.0327 56.8535 92.8046 57.4161 91.8082C57.9788 90.8114 59.0185 90.1976 60.1438 90.1976H89.1193ZM87.2296 87.6208V88.9094L62.0336 88.909V87.6208L87.2296 87.6208ZM92.2689 76.7244L92.2686 76.724C91.95 76.7873 91.6428 76.9005 91.3578 77.0597C90.749 77.3981 90.0141 77.3981 89.4052 77.0597C88.4392 76.5394 87.2848 76.5394 86.3188 77.0597C86.2057 77.1209 86.0894 77.1743 85.9696 77.2202V75.326C86.2889 75.2627 86.5964 75.1498 86.8818 74.991C87.4926 74.6519 88.2294 74.6519 88.8403 74.991C89.8046 75.5113 90.9578 75.5113 91.9224 74.991C92.0341 74.9304 92.1498 74.8774 92.2686 74.8322L92.2689 76.7244Z" fill="white"/>
<path d="M143.512 98.4072H131.119V88.8041C131.461 89.0813 131.973 89.2657 132.486 89.2657H134.367C135.649 89.2657 136.674 88.1574 136.674 86.7727V84.6491C136.674 83.2636 135.648 82.1562 134.367 82.1562H132.486C131.974 82.1562 131.461 82.3405 131.119 82.6178V77.2616C131.461 77.5389 131.973 77.7232 132.486 77.7232H134.367C135.649 77.7232 136.674 76.615 136.674 75.2303V73.1067C136.674 71.7212 135.648 70.6137 134.367 70.6137H132.486C131.974 70.6137 131.461 70.7981 131.119 71.0753V69.2282C131.461 69.5055 131.973 69.6898 132.486 69.6898H134.367C135.649 69.6898 136.674 68.5816 136.674 67.1969V65.0733C136.674 63.6878 135.648 62.5804 134.367 62.5804H132.486C131.974 62.5804 131.461 62.7647 131.119 63.0419V40.4155C131.119 39.5845 130.435 38.8457 129.666 38.8457H129.324V22.6852C129.324 22.3158 129.067 22.0386 128.725 22.0386C128.383 22.0386 128.127 22.3158 128.127 22.6852V38.8449H127.785C127.016 38.8449 126.332 39.5837 126.332 40.4147V62.5771H126.161H123.512V59.0696C123.512 57.592 122.401 56.3917 121.033 56.3917C119.665 56.3917 118.554 57.592 118.554 59.0696V62.5786C117.358 62.6708 116.503 63.779 116.503 65.0716V67.1952C116.503 68.4877 117.443 69.5038 118.554 69.6881V70.8885C117.358 70.9807 116.503 72.0889 116.503 73.3814V75.505C116.503 76.7976 117.443 77.8137 118.554 77.998V82.338C117.358 82.4302 116.503 83.5384 116.503 84.8309V86.9546C116.503 88.2471 117.443 89.2632 118.554 89.4475V98.4049L109.494 98.4071C109.152 98.4071 108.811 98.7766 108.811 99.146C108.811 99.5154 109.152 99.8848 109.494 99.8848H143.511C143.853 99.8848 144.195 99.5154 144.195 99.146C144.196 98.7766 143.854 98.4071 143.512 98.4071L143.512 98.4072ZM131.461 84.7405C131.461 84.0939 131.888 83.6323 132.487 83.6323H134.367C134.965 83.6323 135.393 84.0939 135.393 84.7405V86.8641C135.393 87.5108 134.965 87.9724 134.367 87.9724H132.487C131.888 87.9724 131.461 87.5108 131.461 86.8641V84.7405ZM131.461 73.3824C131.461 72.7358 131.888 72.2742 132.487 72.2742H134.367C134.965 72.2742 135.393 72.7358 135.393 73.3824V75.5061C135.393 76.1527 134.965 76.6143 134.367 76.6143H132.487C131.888 76.6143 131.461 76.1527 131.461 75.5061V73.3824ZM131.461 65.1641C131.461 64.5174 131.888 64.0558 132.487 64.0558H134.367C134.965 64.0558 135.393 64.5174 135.393 65.1641V67.2877C135.393 67.9344 134.965 68.3959 134.367 68.3959H132.487C131.888 68.3959 131.461 67.9344 131.461 67.2877V65.1641ZM127.529 40.4162C127.529 40.324 127.614 40.2318 127.7 40.2318H129.751C129.836 40.2318 129.922 40.324 129.922 40.4162V55.7448H127.528L127.529 40.4162ZM127.529 88.8045C128.042 88.3429 128.469 87.6041 128.469 86.8652V84.7416C128.469 83.9106 128.128 83.264 127.529 82.8024V77.4463C128.042 76.9847 128.469 76.2459 128.469 75.5071V73.3834C128.469 72.5525 128.128 71.9058 127.529 71.4442V69.2278C128.042 68.7662 128.469 68.0274 128.469 67.2886V65.165C128.469 64.334 128.128 63.6873 127.529 63.2257V57.1308H129.923V98.4079H127.529V88.8045ZM126.333 98.4076H123.512V89.266H126.161H126.332L126.333 98.4076ZM119.922 59.254C119.922 58.5152 120.435 57.9614 121.118 57.9614C121.802 57.9614 122.315 58.5152 122.315 59.254L122.315 62.763H119.922L119.922 59.254ZM117.785 67.2881V65.1645C117.785 64.5178 118.212 64.0562 118.811 64.0562H126.076C126.674 64.0562 127.102 64.5178 127.102 65.1645V67.2881C127.102 67.9347 126.674 68.3963 126.076 68.3963H118.811C118.298 68.3963 117.785 67.8418 117.785 67.2881ZM126.247 69.6888V70.8892H126.076H123.426V69.6888H126.076H126.247ZM122.229 69.6888V70.8892H119.836V69.6888H122.229ZM117.785 75.5065V73.3828C117.785 72.7362 118.212 72.2746 118.811 72.2746H126.076C126.674 72.2746 127.102 72.7362 127.102 73.3828V75.5065C127.102 76.1531 126.674 76.6147 126.076 76.6147H118.811C118.298 76.6147 117.785 76.0602 117.785 75.5065ZM126.247 77.9072V82.2472H126.076H123.426V77.9072H126.076H126.247ZM122.229 77.9072V82.2472H119.836V77.9072H122.229ZM117.785 86.8645V84.7409C117.785 84.0942 118.212 83.6327 118.811 83.6327H126.076C126.674 83.6327 127.102 84.0942 127.102 84.7409V86.8645C127.102 87.5112 126.674 87.9728 126.076 87.9728H118.811C118.298 87.9728 117.785 87.4183 117.785 86.8645ZM119.837 98.4069V89.2652H122.23V98.4069H119.837Z" fill="white"/>
<path d="M231.84 263.794C231.84 264.759 231.455 265.54 230.981 265.54C230.507 265.54 230.122 264.759 230.122 263.794C230.122 262.83 230.507 262.049 230.981 262.049C231.455 262.049 231.84 262.83 231.84 263.794Z" fill="white"/>
<path d="M238.711 263.794C238.711 264.759 238.327 265.54 237.852 265.54C237.378 265.54 236.993 264.759 236.993 263.794C236.993 262.83 237.378 262.049 237.852 262.049C238.327 262.049 238.711 262.83 238.711 263.794Z" fill="white"/>
<path d="M224.966 263.794C224.966 264.759 224.197 265.54 223.248 265.54C222.299 265.54 221.53 264.759 221.53 263.794C221.53 262.83 222.299 262.049 223.248 262.049C224.197 262.049 224.966 262.83 224.966 263.794Z" fill="white"/>
<path d="M248.419 254.817H244.811V253.57H247.817H247.817C247.977 253.57 248.13 253.504 248.242 253.387C248.355 253.271 248.419 253.112 248.419 252.947V250.453C248.419 250.287 248.355 250.129 248.242 250.012C248.13 249.895 247.977 249.829 247.817 249.829H244.811V249.206C244.808 249.155 244.802 249.104 244.793 249.054L243.59 244.067V244.067C243.523 243.789 243.283 243.595 243.007 243.595H241.203V242.972C241.203 242.475 241.013 242 240.675 241.649C240.337 241.298 239.878 241.101 239.4 241.101H234.589C234.111 241.101 233.652 241.298 233.314 241.649C232.976 242 232.785 242.475 232.785 242.972V243.595H230.982C230.706 243.595 230.466 243.789 230.399 244.067L230.362 244.218H221.361C221.029 244.218 220.76 244.497 220.76 244.842V247.959V247.959C220.76 248.125 220.823 248.283 220.936 248.4C221.049 248.517 221.202 248.582 221.361 248.582H229.309L229.206 249.057V249.058C229.191 249.106 229.181 249.155 229.177 249.206V251.076H226.171C225.912 251.076 225.682 251.248 225.601 251.502L224.617 254.563L223.703 252.668V252.668C223.601 252.457 223.393 252.323 223.165 252.323H216.551C216.362 252.323 216.183 252.415 216.07 252.572L214.446 254.817H213.545C213.213 254.817 212.943 255.096 212.943 255.44V257.934C212.943 258.1 213.007 258.258 213.119 258.375C213.232 258.492 213.385 258.558 213.545 258.558H214.146V262.298C214.146 262.511 214.251 262.71 214.424 262.824L221.038 267.188V267.189C221.135 267.252 221.247 267.286 221.361 267.286H241.804C241.952 267.286 242.094 267.23 242.204 267.129L247.616 262.141C247.744 262.023 247.817 261.853 247.817 261.675V258.558H248.418C248.578 258.558 248.731 258.492 248.843 258.375C248.956 258.258 249.02 258.1 249.02 257.934V255.44C249.02 255.275 248.956 255.116 248.843 255C248.731 254.882 248.578 254.817 248.418 254.817L248.419 254.817ZM244.811 251.076H247.216V252.323L244.811 252.323V251.076ZM223.165 247.336H221.963V245.465H223.165L223.165 247.336ZM233.988 242.972C233.988 242.627 234.258 242.348 234.59 242.348H239.4C239.559 242.348 239.712 242.414 239.825 242.531C239.938 242.648 240.001 242.806 240.001 242.972V243.595H233.988L233.988 242.972ZM231.452 244.842H242.538L243.439 248.583L230.55 248.582L231.452 244.842ZM230.381 249.829H243.608V251.076H230.381V249.829ZM224.368 247.336V245.465H230.061L229.61 247.336H224.368ZM226.606 252.323L243.608 252.323V254.817L225.804 254.817L226.606 252.323ZM216.852 253.57H222.794L223.395 254.817H215.95L216.852 253.57ZM216.552 261.675C216.552 261.179 216.742 260.703 217.08 260.352C217.418 260.001 217.877 259.804 218.356 259.804C218.834 259.804 219.293 260.001 219.631 260.352C219.969 260.703 220.159 261.179 220.159 261.675C220.159 262.171 219.969 262.647 219.631 262.997C219.293 263.348 218.834 263.545 218.356 263.545C217.877 263.545 217.418 263.348 217.08 262.997C216.742 262.647 216.552 262.171 216.552 261.675ZM219.357 264.601C219.664 264.487 219.95 264.322 220.205 264.113C220.276 264.596 220.438 265.06 220.683 265.478L219.357 264.601ZM223.767 266.039C223.129 266.039 222.517 265.776 222.066 265.308C221.615 264.841 221.362 264.207 221.362 263.545C221.362 262.884 221.615 262.249 222.066 261.782C222.517 261.314 223.129 261.051 223.767 261.051C224.405 261.051 225.016 261.314 225.467 261.782C225.918 262.249 226.172 262.884 226.172 263.545C226.172 264.207 225.918 264.841 225.467 265.308C225.016 265.776 224.405 266.039 223.767 266.039ZM230.982 266.039C230.344 266.039 229.732 265.776 229.281 265.308C228.83 264.841 228.577 264.207 228.577 263.545C228.577 262.884 228.83 262.249 229.281 261.782C229.732 261.314 230.344 261.051 230.982 261.051C231.62 261.051 232.232 261.314 232.683 261.782C233.134 262.249 233.387 262.884 233.387 263.545C233.387 264.207 233.134 264.841 232.683 265.308C232.232 265.776 231.62 266.039 230.982 266.039ZM238.197 266.039C237.56 266.039 236.948 265.776 236.497 265.308C236.046 264.841 235.792 264.207 235.792 263.545C235.792 262.884 236.046 262.249 236.497 261.782C236.948 261.314 237.56 261.051 238.197 261.051C238.835 261.051 239.447 261.314 239.898 261.782C240.349 262.249 240.603 262.884 240.603 263.545C240.603 264.207 240.349 264.841 239.898 265.308C239.447 265.776 238.835 266.039 238.197 266.039ZM241.576 266.039H240.879C241.347 265.5 241.653 264.83 241.759 264.113C242.121 264.415 242.546 264.626 243 264.727L241.576 266.039ZM244.902 262.974L244.79 263.077C244.464 263.377 244.044 263.544 243.609 263.545C243.047 263.548 242.515 263.28 242.17 262.82C241.825 262.36 241.705 261.759 241.846 261.195C241.987 260.631 242.373 260.166 242.89 259.938C243.407 259.709 243.997 259.742 244.487 260.027C244.978 260.313 245.313 260.818 245.394 261.395C245.475 261.972 245.293 262.555 244.902 262.973L244.902 262.974ZM246.615 261.395L246.59 261.418C246.517 260.435 245.997 259.548 245.191 259.026C244.384 258.505 243.387 258.412 242.504 258.776C241.62 259.141 240.957 259.919 240.716 260.872C239.817 259.953 238.519 259.59 237.296 259.914C236.073 260.238 235.103 261.202 234.739 262.455C234.374 263.709 234.669 265.068 235.516 266.039H233.664C234.289 265.318 234.62 264.374 234.587 263.405C234.555 262.437 234.161 261.519 233.488 260.846C232.815 260.172 231.917 259.796 230.982 259.796C230.047 259.796 229.149 260.172 228.476 260.846C227.804 261.519 227.41 262.437 227.377 263.405C227.344 264.374 227.675 265.318 228.301 266.039H226.449C227.295 265.068 227.59 263.709 227.226 262.455C226.861 261.202 225.891 260.238 224.668 259.914C223.445 259.59 222.148 259.953 221.248 260.872C220.997 259.89 220.298 259.097 219.378 258.748C218.457 258.399 217.43 258.539 216.628 259.122C215.825 259.706 215.347 260.658 215.349 261.675C215.354 261.775 215.364 261.876 215.379 261.975L215.349 261.956V258.558H246.616L246.615 261.395ZM247.818 257.311H214.147V256.064H247.818V257.311Z" fill="white"/>
<path d="M236.993 246.339H238.711V248.084H236.993V246.339Z" fill="white"/>
<path d="M235.273 246.339H236.991V248.084H235.273V246.339Z" fill="white"/>
<path d="M231.84 246.339H233.558V248.084H231.84V246.339Z" fill="white"/>
<path d="M368.82 265.064C368.82 265.543 369.205 265.932 369.679 265.932C370.154 265.932 370.538 265.543 370.538 265.064C370.538 264.584 370.154 264.196 369.679 264.196C369.205 264.196 368.82 264.584 368.82 265.064Z" fill="white"/>
<path d="M360.228 265.064C360.228 265.543 360.997 265.932 361.946 265.932C362.895 265.932 363.664 265.543 363.664 265.064C363.664 264.584 362.895 264.196 361.946 264.196C360.997 264.196 360.228 264.584 360.228 265.064Z" fill="white"/>
<path d="M375.689 265.064C375.689 265.543 376.074 265.932 376.548 265.932C377.023 265.932 377.407 265.543 377.407 265.064C377.407 264.584 377.023 264.196 376.548 264.196C376.074 264.196 375.689 264.584 375.689 265.064Z" fill="white"/>
<path d="M384.279 262.459H382.561V264.195H384.279V262.459Z" fill="white"/>
<path d="M354.044 256.483H355.246V254.544C355.246 254.248 355.434 253.99 355.702 253.918L360.512 252.625L360.511 252.626C360.56 252.616 360.609 252.609 360.658 252.606H361.259V248.083C361.259 248.001 361.274 247.919 361.302 247.843L362.504 244.612H362.504C362.596 244.367 362.817 244.207 363.063 244.207H363.664V242.269C363.664 242.097 363.727 241.933 363.84 241.812C363.953 241.691 364.106 241.622 364.265 241.622H370.278C370.61 241.622 370.879 241.912 370.879 242.269V244.207H372.082C372.146 244.209 372.209 244.223 372.269 244.248L375.787 245.499H378.134L387.153 246.145V246.145C387.47 246.167 387.716 246.45 387.715 246.791V249.376C387.716 249.716 387.47 249.999 387.153 250.021L378.134 250.667H378.094H375.787L372.683 251.78V252.606H378.695C378.954 252.606 379.184 252.784 379.266 253.048L380.332 256.483H382.905V255.19H380.5L380.499 253.898H384.708V255.19H384.107V256.483H385.31C385.947 256.483 386.559 256.755 387.01 257.24C387.461 257.724 387.714 258.381 387.714 259.067V264.882C387.714 265.118 387.595 265.336 387.401 265.449L380.787 269.326H380.788C380.699 269.378 380.6 269.405 380.499 269.405H358.854C358.753 269.405 358.654 269.378 358.566 269.326L351.952 265.449H351.952C351.759 265.336 351.639 265.118 351.639 264.882V259.067C351.639 258.381 351.892 257.724 352.343 257.24C352.794 256.755 353.406 256.483 354.044 256.483L354.044 256.483ZM378.696 249.331L386.512 248.771V247.396L378.696 246.836L378.696 249.331ZM376.291 249.376H377.493V246.791H376.291V249.376ZM360.057 254.08L356.449 255.049L356.45 256.483H360.057L360.057 254.08ZM364.266 245.499H363.47L362.462 248.207V252.606H364.266L364.266 245.499ZM369.677 242.915H364.867V244.207H369.677V242.915ZM365.469 245.499L365.468 252.606H366.671V245.499H365.469ZM371.481 245.499H367.874V252.606H371.481V245.499ZM372.082 253.898H361.259V256.482L372.082 256.483V253.898ZM375.089 249.556V246.611L372.684 245.75V250.417L375.089 249.556ZM374.487 253.898H373.285V256.482L374.487 256.483V253.898ZM378.262 253.898H375.69V256.482L379.065 256.483L378.262 253.898ZM385.31 263.59C385.31 263.076 385.12 262.583 384.782 262.22C384.443 261.856 383.985 261.652 383.506 261.652C383.028 261.652 382.569 261.856 382.231 262.22C381.893 262.583 381.702 263.076 381.702 263.59C381.702 264.104 381.893 264.597 382.231 264.961C382.569 265.324 383.028 265.528 383.506 265.528C383.985 265.528 384.443 265.324 384.782 264.961C385.12 264.597 385.31 264.104 385.31 263.59ZM376.892 268.113L376.892 268.113C377.53 268.113 378.142 267.84 378.593 267.356C379.044 266.871 379.297 266.214 379.297 265.528C379.297 264.843 379.044 264.185 378.593 263.701C378.142 263.216 377.53 262.944 376.892 262.944C376.254 262.944 375.643 263.216 375.192 263.701C374.741 264.185 374.487 264.843 374.487 265.528C374.487 266.214 374.741 266.871 375.192 267.356C375.643 267.84 376.254 268.113 376.892 268.113L376.892 268.113ZM369.677 268.113L369.677 268.113C370.315 268.113 370.927 267.84 371.378 267.356C371.829 266.871 372.082 266.214 372.082 265.528C372.082 264.843 371.829 264.185 371.378 263.701C370.927 263.216 370.315 262.944 369.677 262.944C369.039 262.944 368.427 263.216 367.976 263.701C367.525 264.185 367.272 264.843 367.272 265.528C367.272 266.214 367.525 266.871 367.976 267.356C368.427 267.84 369.039 268.113 369.677 268.113L369.677 268.113ZM362.462 268.113L362.462 268.113C363.1 268.113 363.711 267.84 364.163 267.356C364.614 266.871 364.867 266.214 364.867 265.528C364.867 264.843 364.614 264.185 364.163 263.701C363.712 263.216 363.1 262.944 362.462 262.944C361.824 262.944 361.212 263.216 360.761 263.701C360.31 264.185 360.057 264.843 360.057 265.528C360.057 266.214 360.31 266.871 360.761 267.356C361.212 267.84 361.824 268.113 362.462 268.113L362.462 268.113ZM355.848 265.528H355.848C356.326 265.528 356.785 265.324 357.123 264.961C357.462 264.597 357.652 264.104 357.652 263.59C357.652 263.076 357.462 262.583 357.123 262.22C356.785 261.856 356.326 261.652 355.848 261.652C355.37 261.652 354.911 261.856 354.573 262.22C354.234 262.583 354.044 263.076 354.044 263.59C354.044 264.104 354.234 264.597 354.573 264.961C354.911 265.324 355.37 265.528 355.848 265.528H355.848ZM352.841 263.59V264.498L353.005 264.594L353.005 264.595C352.901 264.271 352.846 263.932 352.842 263.59C352.839 262.78 353.119 261.998 353.627 261.4C354.136 260.801 354.835 260.43 355.586 260.359C356.337 260.289 357.085 260.524 357.683 261.018C358.28 261.513 358.682 262.23 358.811 263.028C358.939 263.827 358.783 264.648 358.374 265.329C357.966 266.009 357.334 266.5 356.604 266.704L359.009 268.113H359.78C359.155 267.366 358.824 266.387 358.857 265.384C358.889 264.38 359.284 263.429 359.956 262.731C360.629 262.033 361.527 261.643 362.462 261.643C363.397 261.643 364.295 262.033 364.968 262.731C365.64 263.429 366.034 264.38 366.067 265.384C366.1 266.387 365.769 267.366 365.143 268.113H366.995C366.37 267.366 366.039 266.387 366.072 265.384C366.105 264.38 366.499 263.429 367.171 262.731C367.844 262.033 368.742 261.643 369.677 261.643C370.612 261.643 371.51 262.033 372.183 262.731C372.855 263.429 373.25 264.38 373.283 265.384C373.315 266.387 372.984 267.366 372.359 268.113H374.211C373.585 267.366 373.254 266.387 373.287 265.384C373.32 264.38 373.714 263.429 374.387 262.731C375.059 262.033 375.957 261.643 376.892 261.643C377.827 261.643 378.725 262.033 379.398 262.731C380.071 263.429 380.465 264.38 380.497 265.384C380.531 266.387 380.199 267.366 379.574 268.113H380.346L382.751 266.704H382.752C381.955 266.493 381.272 265.944 380.858 265.183C380.444 264.421 380.334 263.512 380.554 262.663C380.774 261.813 381.305 261.095 382.025 260.673C382.746 260.251 383.594 260.16 384.378 260.421C385.162 260.683 385.814 261.274 386.186 262.06C386.557 262.846 386.617 263.761 386.351 264.595L386.513 264.499V260.36H352.842L352.841 263.59ZM386.512 259.067C386.512 258.725 386.386 258.396 386.16 258.154C385.935 257.911 385.629 257.775 385.31 257.775H354.044C353.725 257.775 353.419 257.911 353.193 258.154C352.968 258.396 352.841 258.725 352.841 259.067H386.512Z" fill="white"/>
<path d="M370.538 246.832H368.82V248.568H370.538V246.832Z" fill="white"/>
<path d="M370.538 250.304H368.82V252.04H370.538V250.304Z" fill="white"/>
</g>
<defs>
<filter id="filter0_d_693_3389" x="0.255859" y="0" width="597.487" height="278.405" filterUnits="userSpaceOnUse" color-interpolation-filters="sRGB">
<feFlood flood-opacity="0" result="BackgroundImageFix"/>
<feColorMatrix in="SourceAlpha" type="matrix" values="0 0 0 0 0 0 0 0 0 0 0 0 0 0 0 0 0 0 127 0" result="hardAlpha"/>
<feOffset dy="1"/>
<feGaussianBlur stdDeviation="4"/>
<feComposite in2="hardAlpha" operator="out"/>
<feColorMatrix type="matrix" values="0 0 0 0 0 0 0 0 0 0 0 0 0 0 0 0 0 0 1 0"/>
<feBlend mode="normal" in2="BackgroundImageFix" result="effect1_dropShadow_693_3389"/>
<feBlend mode="normal" in="SourceGraphic" in2="effect1_dropShadow_693_3389" result="shape"/>
</filter>
</defs>
</svg>
