<svg width="51" height="50" viewBox="0 0 51 50" fill="none" xmlns="http://www.w3.org/2000/svg">
<g clip-path="url(#clip0_693_3496)">
<path d="M50.5 47.1173L47.6172 50L42.8647 45.2476H8.92334C6.42322 45.2476 4.41886 43.2433 4.41886 40.7432L4.44177 15.9677C4.44177 13.4676 6.42408 11.4633 8.92384 11.4633H9.08149L0.5 2.88274L3.38279 0L14.8246 11.4637L47.6856 44.3241L50.5 47.1173ZM44.9594 11.4637H35.9504V6.95932C35.9504 4.45924 33.946 2.45491 31.4459 2.45491H22.4363C19.9362 2.45491 17.9318 4.45924 17.9318 6.95932V8.79414L49.4637 40.3255L49.4641 15.9687C49.4641 13.4686 47.4598 11.4643 44.9597 11.4643L44.9594 11.4637ZM31.4453 11.4637H22.4357V6.95932H31.4448V11.4637H31.4453Z" fill="#F9D592"/>
</g>
<defs>
<clipPath id="clip0_693_3496">
<rect width="50" height="50" fill="white" transform="translate(0.5)"/>
</clipPath>
</defs>
</svg>
