<svg width="51" height="50" viewBox="0 0 51 50" fill="none" xmlns="http://www.w3.org/2000/svg">
<g clip-path="url(#clip0_693_3475)">
<path d="M25.5631 -0.126221C11.7436 -0.126221 0.5 11.1174 0.5 24.9369C0.5 38.7563 11.7436 50 25.5631 50C39.3826 50 50.6262 38.7563 50.6262 24.9369C50.6262 11.1187 39.3826 -0.126221 25.5631 -0.126221ZM49.3701 24.2458H46.3553C46.418 23.7433 46.6066 23.2407 46.7952 22.6754C47.1718 21.5449 47.549 20.3512 47.235 19.1579C46.9211 17.9647 45.9786 17.0849 45.0367 16.2684C44.4088 15.7031 43.8435 15.2005 43.529 14.5726C43.1524 13.9447 43.0264 13.1908 42.8379 12.3743C42.5866 11.1811 42.2726 9.92462 41.4561 9.1081C40.5768 8.22887 39.3831 7.97759 38.1899 7.72629C37.3733 7.53769 36.6194 7.34963 35.9915 7.03513C35.4263 6.72116 34.861 6.09268 34.2958 5.52745C33.4792 4.64821 32.6 3.70581 31.4063 3.32912C30.2758 3.01514 29.0821 3.39181 27.8887 3.769C27.3235 3.9576 26.7582 4.14566 26.193 4.20888V1.19404C38.8174 1.44428 48.9933 11.6205 49.37 24.2464L49.3701 24.2458ZM45.6008 27.6379C45.9148 28.643 46.2288 29.6481 46.0407 30.4647C45.7894 31.3439 45.0356 32.0351 44.2191 32.7889C43.5911 33.4168 42.9 33.9821 42.4601 34.736C42.0201 35.4899 41.8321 36.4317 41.6435 37.3115C41.3922 38.3793 41.2036 39.3845 40.5757 40.0124C39.9477 40.6404 38.9426 40.8289 37.8748 41.0802C36.9956 41.2688 36.1158 41.4569 35.2992 41.8968C34.5454 42.3367 33.9174 43.0273 33.3521 43.6558C32.5983 44.4724 31.9076 45.2262 31.0279 45.4775C30.2114 45.666 29.2689 45.4148 28.2012 45.0376C27.51 44.849 26.8194 44.5977 26.1282 44.535L26.1287 25.5016H45.0361C45.162 26.1927 45.4133 26.9461 45.6014 27.6373L45.6008 27.6379ZM5.52588 22.2987C5.2119 21.2936 4.89793 20.2885 5.086 19.472C5.33729 18.5927 6.09114 17.9015 6.90764 17.1478C7.5356 16.5198 8.22676 15.9545 8.66667 15.2007C9.10655 14.4468 9.29463 13.5049 9.48322 12.6251C9.7345 11.5573 9.92309 10.5521 10.551 9.92422C11.179 9.29626 12.1841 9.10768 13.2519 8.85639C14.1312 8.66779 15.011 8.47972 15.8275 8.03984C16.5813 7.59997 17.2093 6.90933 17.7746 6.28081C18.5285 5.46427 19.2191 4.71039 20.0988 4.45917C20.2874 4.39648 20.4755 4.39648 20.6641 4.39648C21.3552 4.39648 22.1086 4.64777 22.8624 4.89906C23.5535 5.08766 24.2442 5.33894 24.9354 5.40163V24.2454H6.02795C5.90257 23.5547 5.71398 22.9263 5.52538 22.2983L5.52588 22.2987ZM45.6008 22.2987C45.4122 22.9267 45.2242 23.6178 45.0983 24.2458H26.1909V5.40209C26.882 5.3394 27.5727 5.08811 28.2638 4.89952C29.269 4.58554 30.2741 4.27156 31.0906 4.45964C31.9698 4.71092 32.661 5.46478 33.4148 6.28128C34.0428 6.90923 34.608 7.60039 35.3619 8.04031C36.1158 8.48023 37.0577 8.66827 37.9375 8.85685C38.8794 9.17083 39.8846 9.35942 40.5125 9.98788C41.1404 10.6158 41.329 11.6209 41.5803 12.6888C41.7689 13.568 41.957 14.4478 42.3969 15.2643C42.8367 16.0182 43.5274 16.6461 44.1559 17.2114C44.9724 17.9653 45.7263 18.656 45.9775 19.5356C46.2288 20.289 45.9148 21.2314 45.6003 22.2993L45.6008 22.2987ZM5.52588 27.6379C5.71448 26.9467 5.96576 26.1933 6.02846 25.5022H24.9359V44.5356C24.2447 44.5983 23.5541 44.8496 22.8629 45.0382C21.8577 45.3521 20.8526 45.6661 20.0361 45.478C19.1569 45.2268 18.4657 44.4729 17.7119 43.6564C17.084 43.0285 16.5187 42.3373 15.7648 41.8974C15.0109 41.4575 14.069 41.2694 13.1893 41.0808C12.1214 40.8296 11.1163 40.641 10.4884 40.013C9.86048 39.385 9.67184 38.38 9.42054 37.3121C9.23195 36.4329 9.04388 35.5531 8.604 34.7366C8.16413 33.9827 7.47349 33.3548 6.84497 32.7895C6.02843 32.0356 5.27455 31.3449 5.02333 30.4653C4.89847 29.6487 5.21245 28.6436 5.52643 27.6385L5.52588 27.6379ZM24.936 1.13038V4.14522C24.4334 4.08253 23.8682 3.89394 23.2402 3.70535C22.1097 3.32868 20.916 2.95149 19.7227 3.26547C18.5295 3.57945 17.6497 4.5219 16.8332 5.46379C16.2679 6.09175 15.7654 6.65701 15.1374 6.97148C14.5095 7.34814 13.7556 7.47405 12.9391 7.66264C11.7459 7.91392 10.4894 8.2279 9.67291 9.04445C8.79368 9.92369 8.54239 11.1174 8.2911 12.3106C8.1025 13.1272 7.91444 13.8811 7.59994 14.509C7.28596 15.0742 6.65749 15.6395 6.09226 16.2047C5.21302 17.0213 4.27062 17.9005 3.89393 19.0942C3.57995 20.2247 3.95662 21.4184 4.33381 22.6118C4.5224 23.177 4.64779 23.6796 4.77369 24.1822H1.75884C2.13499 11.6205 12.3108 1.44422 24.9358 1.12987L24.936 1.13038ZM1.75766 25.5024H4.7725C4.70981 26.0677 4.52122 26.633 4.33263 27.2615C3.95596 28.392 3.57877 29.5857 3.89275 30.779C4.20673 31.9722 5.14918 32.852 6.09108 33.6685C6.71903 34.2338 7.28429 34.7363 7.59876 35.3643C7.97542 35.9922 8.10134 36.7461 8.28992 37.5626C8.5412 38.7558 8.85518 40.0123 9.67173 40.8288C10.551 41.708 11.7447 41.9593 12.9379 42.2106C13.7545 42.3992 14.5083 42.5873 15.1362 42.9018C15.7015 43.2157 16.2668 43.8442 16.832 44.4094C17.6486 45.2887 18.5278 46.2311 19.7215 46.6078C20.0355 46.6705 20.3495 46.7332 20.664 46.7332C21.5432 46.7332 22.423 46.4819 23.2395 46.1679C23.8048 45.9793 24.37 45.7912 24.9353 45.728V48.7429C12.2477 48.4294 2.00896 38.1909 1.75695 25.5022L1.75766 25.5024ZM26.1921 48.7444V45.7296C26.7573 45.7923 27.2599 45.9809 27.8878 46.1695C29.0183 46.5461 30.212 46.9233 31.4054 46.6093C32.5986 46.2954 33.4783 45.3529 34.2949 44.411C34.8601 43.7831 35.3627 43.2178 35.9906 42.9033C36.6186 42.5267 37.3724 42.4008 38.189 42.2122C39.3822 41.9609 40.6386 41.6469 41.4551 40.8304C42.3344 39.9511 42.5857 38.7574 42.8369 37.5642C43.0255 36.7476 43.2136 35.9938 43.5281 35.3658C43.8421 34.8006 44.4706 34.2353 45.0358 33.6701C45.915 32.8535 46.8574 31.9743 47.2341 30.7806C47.5481 29.6501 47.1714 28.4564 46.7942 27.2631C46.6056 26.6351 46.4176 26.0698 46.3544 25.504H49.3692C49.1195 38.1916 38.8805 48.4303 26.1922 48.7447L26.1921 48.7444Z" fill="#F9D592"/>
<path d="M30.2744 37.8769C30.2744 39.3846 31.4676 40.5778 32.9753 40.5778C34.483 40.5778 35.6762 39.3846 35.6762 37.8769C35.6762 36.3692 34.483 35.176 32.9753 35.176C31.5302 35.1755 30.2744 36.3692 30.2744 37.8769ZM34.4199 37.8769C34.4199 38.6935 33.7919 39.3215 32.9753 39.3215C32.1587 39.3215 31.5308 38.6935 31.5308 37.8769C31.5308 37.0603 32.1587 36.4324 32.9753 36.4324C33.7918 36.4318 34.4199 37.0603 34.4199 37.8769Z" fill="#F9D592"/>
<path d="M19.4069 8.60522C17.8993 8.60522 16.7061 9.79844 16.7061 11.3061C16.7061 12.8138 17.8993 14.007 19.4069 14.007C20.9146 14.007 22.1078 12.8138 22.1078 11.3061C22.1078 9.79896 20.9141 8.60522 19.4069 8.60522ZM19.4069 12.7512C18.5904 12.7512 17.9624 12.1232 17.9624 11.3066C17.9624 10.49 18.5904 9.86209 19.4069 9.86209C20.2235 9.86209 20.8515 10.49 20.8515 11.3066C20.8515 12.1232 20.2235 12.7512 19.4069 12.7512Z" fill="#F9D592"/>
<path d="M20.4753 32.5382C21.983 32.5382 23.1762 31.345 23.1762 29.8374C23.1762 28.3297 21.983 27.1365 20.4753 27.1365C18.9676 27.1365 17.7744 28.3297 17.7744 29.8374C17.7739 31.3445 18.9676 32.5382 20.4753 32.5382ZM20.4753 28.3297C21.2918 28.3297 21.9199 28.9576 21.9199 29.7742C21.9199 30.5908 21.2919 31.2188 20.4753 31.2188C19.6587 31.2188 19.0308 30.5908 19.0308 29.7742C19.0302 28.9577 19.6587 28.3297 20.4753 28.3297Z" fill="#F9D592"/>
<path d="M19.4069 16.7092C17.8993 16.7092 16.7061 17.9024 16.7061 19.4101C16.7061 20.9178 17.8993 22.111 19.4069 22.111C20.9146 22.111 22.1078 20.9178 22.1078 19.4101C22.1078 17.9656 20.9141 16.7092 19.4069 16.7092ZM19.4069 20.9178C18.5904 20.9178 17.9624 20.2898 17.9624 19.4733C17.9624 18.6567 18.5904 18.0287 19.4069 18.0287C20.2235 18.0287 20.8515 18.6567 20.8515 19.4733C20.8515 20.2893 20.2235 20.9178 19.4069 20.9178Z" fill="#F9D592"/>
<path d="M39.2566 34.862C40.7642 34.862 41.9574 33.6688 41.9574 32.1611C41.9574 30.6534 40.7642 29.4602 39.2566 29.4602C37.7489 29.4602 36.5557 30.6534 36.5557 32.1611C36.5557 33.6688 37.7494 34.862 39.2566 34.862ZM39.2566 30.7165C40.0731 30.7165 40.7011 31.3445 40.7011 32.1611C40.7011 32.9777 40.0731 33.6056 39.2566 33.6056C38.44 33.6056 37.812 32.9777 37.812 32.1611C37.812 31.3445 38.44 30.7165 39.2566 30.7165Z" fill="#F9D592"/>
<path d="M30.4626 17.2109C28.9549 17.2109 27.7617 18.4042 27.7617 19.9118C27.7617 21.4195 28.9549 22.6127 30.4626 22.6127C31.9703 22.6127 33.1635 21.4195 33.1635 19.9118C33.2267 18.4041 31.9703 17.2109 30.4626 17.2109ZM30.4626 21.3564C29.6461 21.3564 29.0181 20.7284 29.0181 19.9118C29.0181 19.0952 29.646 18.4673 30.4626 18.4673C31.2792 18.4673 31.9072 19.0952 31.9072 19.9118C31.9077 20.7284 31.2792 21.3564 30.4626 21.3564Z" fill="#F9D592"/>
<path d="M31.53 8.60522C30.0223 8.60522 28.8291 9.79844 28.8291 11.3061C28.8291 12.8138 30.0223 14.007 31.53 14.007C33.0377 14.007 34.2309 12.8138 34.2309 11.3061C34.2314 9.79896 33.0377 8.60522 31.53 8.60522ZM31.53 12.7512C30.7135 12.7512 30.0854 12.1232 30.0854 11.3066C30.0854 10.49 30.7134 9.86209 31.53 9.86209C32.3466 9.86209 32.9745 10.49 32.9745 11.3066C32.9751 12.1232 32.3466 12.7512 31.53 12.7512Z" fill="#F9D592"/>
<path d="M31.0277 32.9775C32.7867 32.9775 34.2311 31.5329 34.2311 29.774C34.2311 28.0151 32.7866 26.5706 31.0277 26.5706C29.2686 26.5706 27.8242 28.0151 27.8242 29.774C27.8242 31.5329 29.2693 32.9775 31.0277 32.9775ZM31.0277 27.8896C32.0955 27.8896 32.9748 28.7689 32.9748 29.8367C32.9748 30.9046 32.0955 31.7839 31.0277 31.7839C29.9598 31.7839 29.0806 30.9046 29.0806 29.8367C29.0806 28.7689 29.9598 27.8896 31.0277 27.8896Z" fill="#F9D592"/>
<path d="M38.3773 16.269C36.6182 16.269 35.1738 17.7136 35.1738 19.4725C35.1738 21.2315 36.6184 22.6759 38.3773 22.6759C40.1363 22.6759 41.5807 21.2314 41.5807 19.4725C41.5807 17.714 40.1362 16.269 38.3773 16.269ZM38.3773 21.3569C37.3094 21.3569 36.4302 20.4776 36.4302 19.4098C36.4302 18.3419 37.3721 17.5254 38.3773 17.5254C39.3825 17.5254 40.3244 18.4046 40.3244 19.4725C40.3244 20.5403 39.4452 21.3569 38.3773 21.3569Z" fill="#F9D592"/>
<path d="M19.973 41.0177C21.732 41.0177 23.1764 39.5732 23.1764 37.8143C23.1764 36.0554 21.7319 34.6108 19.973 34.6108C18.2141 34.6108 16.7695 36.0554 16.7695 37.8143C16.7695 39.5732 18.2141 41.0177 19.973 41.0177ZM19.973 35.9299C21.0408 35.9299 21.9201 36.8092 21.9201 37.877C21.9201 38.9449 21.0409 39.8241 19.973 39.8241C18.9051 39.8241 18.0259 38.9449 18.0259 37.877C18.0253 36.8097 18.9051 35.9299 19.973 35.9299Z" fill="#F9D592"/>
<path d="M11.179 16.269C9.42 16.269 7.97559 17.7136 7.97559 19.4725C7.97559 21.2315 9.42014 22.6759 11.179 22.6759C12.9379 22.6759 14.3825 21.2314 14.3825 19.4725C14.3825 17.714 12.9374 16.269 11.179 16.269ZM11.179 21.3569C10.1112 21.3569 9.23192 20.4776 9.23192 19.4098C9.23192 18.3419 10.1112 17.4626 11.179 17.4626C12.2469 17.4626 13.1261 18.3419 13.1261 19.4098C13.1261 20.4776 12.2469 21.3569 11.179 21.3569Z" fill="#F9D592"/>
<path d="M12.8753 34.8622C14.6344 34.8622 16.0788 33.4177 16.0788 31.6588C16.0788 29.8997 14.6342 28.4553 12.8753 28.4553C11.1163 28.4553 9.67188 29.8999 9.67188 31.6588C9.67188 33.4178 11.1164 34.8622 12.8753 34.8622ZM12.8753 29.7744C13.9432 29.7744 14.8224 30.6536 14.8224 31.7215C14.8224 32.7894 13.9432 33.6686 12.8753 33.6686C11.8075 33.6686 10.9282 32.7894 10.9282 31.7215C10.9282 30.6536 11.8075 29.7744 12.8753 29.7744Z" fill="#F9D592"/>
</g>
<defs>
<clipPath id="clip0_693_3475">
<rect width="50" height="50" fill="white" transform="translate(0.5)"/>
</clipPath>
</defs>
</svg>
