<svg width="51" height="50" viewBox="0 0 51 50" fill="none" xmlns="http://www.w3.org/2000/svg">
<g clip-path="url(#clip0_693_3492)">
<path d="M0.5 21V24.2H2.05579V25.8H3.38927V27.4H5.27822V29H17.7778V27.4H19.6667V25.8H21.0552V24.2H22.611V22.6H28.3891V24.2H29.9444V25.8H31.2779V27.4H33.1668V29H45.6664V27.4H47.5554V25.8H48.8888V24.2H50.5V21H0.5ZM9.66685 27.4H8.05569V25.8H6.44454V24.2H4.83338V22.6H6.44454V24.2H8.05569V25.8H9.66685V27.4ZM37.39 27.4H35.7788V25.8H34.1676V24.2H32.5565V22.6H34.1676V24.2H35.7788V25.8H37.39V27.4Z" fill="#F9D592"/>
</g>
<defs>
<clipPath id="clip0_693_3492">
<rect width="50" height="50" fill="white" transform="translate(0.5)"/>
</clipPath>
</defs>
</svg>
